<?xml version="1.0" encoding="UTF-8" ?>
<!DOCTYPE svg PUBLIC "-//W3C//DTD SVG 1.1//EN" "http://www.w3.org/Graphics/SVG/1.1/DTD/svg11.dtd">
<svg width="1496pt" height="642pt" viewBox="0 0 1496 642" version="1.1" xmlns="http://www.w3.org/2000/svg">
<g id="#ffffffff">
<path fill="#ffffff" opacity="1.00" d=" M 0.00 0.00 L 1496.00 0.00 L 1496.00 642.00 L 0.00 642.00 L 0.00 0.00 M 690.00 74.75 C 689.99 76.42 690.00 78.09 690.00 79.76 C 694.00 79.75 698.00 79.75 702.00 79.75 C 702.00 95.50 702.00 111.25 702.00 127.00 C 703.74 127.00 705.49 127.00 707.25 127.00 C 707.25 111.25 707.25 95.50 707.25 79.76 C 711.25 79.75 715.25 79.76 719.25 79.75 C 719.24 78.08 719.24 76.42 719.25 74.75 C 709.50 74.75 699.75 74.75 690.00 74.75 M 724.75 74.75 C 724.75 92.17 724.75 109.58 724.75 127.00 C 726.57 127.00 728.40 127.00 730.25 127.00 C 730.26 118.83 730.24 110.66 730.26 102.50 C 739.09 102.51 747.92 102.49 756.75 102.51 C 756.74 110.67 756.75 118.83 756.75 127.00 C 758.57 127.00 760.40 127.00 762.25 127.00 C 762.25 109.58 762.25 92.17 762.25 74.75 C 760.41 74.75 758.57 74.75 756.75 74.75 C 756.75 82.42 756.75 90.08 756.75 97.75 C 747.91 97.75 739.08 97.75 730.25 97.75 C 730.25 90.08 730.25 82.42 730.25 74.75 C 728.41 74.75 726.57 74.75 724.75 74.75 M 772.25 74.76 C 772.25 92.17 772.25 109.58 772.24 127.00 C 781.83 127.00 791.41 127.00 801.00 127.00 C 800.99 125.33 800.99 123.67 801.00 122.00 C 793.25 122.00 785.50 122.01 777.75 122.00 C 777.75 115.67 777.75 109.33 777.75 103.00 C 785.25 102.99 792.75 103.00 800.25 103.00 C 800.24 101.41 800.24 99.83 800.25 98.25 C 792.75 98.25 785.25 98.25 777.75 98.24 C 777.75 92.08 777.75 85.92 777.76 79.75 C 785.50 79.75 793.25 79.75 801.00 79.76 C 800.99 78.09 800.98 76.42 801.00 74.75 C 791.41 74.75 781.83 74.74 772.25 74.76 M 558.22 98.00 C 558.24 99.52 558.27 101.03 558.31 102.54 C 591.79 102.45 625.27 102.54 658.75 102.50 C 658.75 101.00 658.75 99.50 658.76 98.00 C 625.25 98.00 591.73 97.99 558.22 98.00 M 836.00 98.00 C 835.98 99.50 835.99 101.00 836.01 102.51 C 869.51 102.49 903.00 102.51 936.50 102.50 C 936.49 101.00 936.49 99.50 936.50 98.00 C 903.00 98.00 869.50 98.00 836.00 98.00 M 479.98 147.01 C 461.65 163.81 447.76 184.74 435.22 206.03 C 422.13 228.92 409.96 252.39 399.94 276.80 C 391.69 296.89 384.61 317.44 378.46 338.26 C 362.14 313.92 337.00 296.30 309.44 286.90 C 316.64 265.15 323.31 243.19 331.75 221.87 C 337.79 207.18 344.03 191.88 355.24 180.30 C 365.62 178.37 376.35 176.07 385.24 170.06 C 390.13 166.80 394.19 161.21 393.44 155.08 C 392.82 150.12 387.84 146.76 383.05 146.96 C 378.66 146.65 374.53 148.50 370.98 150.91 C 361.87 157.00 353.65 164.31 345.86 171.99 C 327.52 170.69 309.23 168.51 291.23 164.77 C 275.44 161.52 260.05 156.43 244.07 154.06 C 234.75 152.72 225.04 152.42 215.93 155.15 C 203.82 158.75 193.62 167.63 187.59 178.64 C 180.53 191.52 179.52 207.17 183.43 221.20 C 187.36 235.00 194.29 248.30 204.97 258.08 C 212.62 265.10 222.63 269.99 233.16 269.99 C 238.54 269.93 243.04 266.09 245.58 261.60 C 250.52 253.03 252.08 243.03 253.06 233.33 C 251.31 233.14 249.57 232.95 247.83 232.75 C 247.18 241.22 246.20 250.14 241.46 257.43 C 238.75 261.63 233.09 264.22 228.36 261.80 C 220.36 257.99 215.54 249.96 211.33 242.53 C 202.53 225.68 197.27 206.17 200.64 187.15 C 201.97 179.24 205.52 170.97 212.76 166.82 C 221.21 161.75 231.57 162.77 240.84 164.51 C 264.44 169.15 287.25 177.18 310.90 181.64 C 318.32 182.93 325.92 184.10 333.44 182.97 C 320.94 195.39 310.35 209.86 302.98 225.90 C 299.43 233.58 297.27 241.79 294.61 249.80 C 291.32 260.31 287.87 270.77 284.53 281.26 C 264.77 279.92 244.48 287.57 231.10 302.28 C 232.59 304.68 234.86 307.15 237.97 306.80 C 243.01 307.02 246.57 302.93 249.63 299.51 C 257.71 291.30 270.27 290.69 281.03 292.13 C 275.18 309.53 269.37 326.94 263.17 344.21 C 253.81 370.29 243.61 396.58 226.91 418.95 C 217.44 431.53 205.36 443.68 189.53 447.36 C 178.79 450.02 167.93 445.90 158.70 440.62 C 163.23 434.45 167.91 428.36 171.81 421.75 C 189.03 393.91 197.52 360.87 196.08 328.18 C 195.41 305.62 191.63 282.47 180.43 262.59 C 174.54 252.27 166.01 242.97 154.86 238.34 C 143.57 233.66 129.58 233.97 119.66 241.66 C 108.20 250.40 102.37 264.35 98.62 277.84 C 91.73 304.29 91.53 332.37 97.43 359.04 C 101.64 378.58 108.21 397.72 118.02 415.18 C 124.47 426.53 132.60 437.19 143.16 445.04 C 132.27 455.33 118.45 461.97 104.17 466.12 C 102.81 468.88 101.42 471.63 100.08 474.41 C 111.34 475.46 122.71 472.23 132.15 466.12 C 139.25 461.76 144.80 455.47 150.71 449.70 C 167.13 458.57 187.09 460.55 204.91 454.96 C 223.54 449.22 239.18 436.03 250.10 420.11 C 258.55 407.50 265.80 394.13 272.49 380.52 C 285.35 354.00 295.91 326.44 305.44 298.57 C 333.19 309.27 357.33 328.73 374.18 353.18 C 369.79 369.84 365.58 386.58 362.80 403.59 C 361.27 412.34 361.97 421.78 366.34 429.65 C 368.74 434.01 372.92 437.85 378.10 438.22 C 383.94 438.56 389.36 435.28 393.36 431.27 C 399.66 424.53 401.51 414.93 401.51 405.99 C 401.16 390.91 396.80 376.25 391.10 362.39 C 402.41 323.85 417.29 286.42 433.98 249.91 C 449.56 217.17 468.22 185.89 489.31 156.41 C 494.90 149.10 499.98 140.58 508.77 136.74 C 516.33 132.99 524.93 133.83 533.08 133.74 C 536.67 133.82 539.03 130.38 539.39 127.13 C 533.31 125.89 527.05 125.34 520.89 126.21 C 505.29 128.04 491.44 136.69 479.98 147.01 M 1074.53 127.52 C 1064.86 131.61 1057.42 139.39 1050.44 146.98 C 1024.70 142.17 998.09 140.45 972.15 144.63 C 955.56 147.19 939.88 153.87 925.61 162.53 C 918.99 155.40 910.96 148.82 901.23 146.75 C 889.70 144.59 877.78 146.62 866.84 150.49 C 867.11 152.95 869.07 156.04 871.96 155.11 C 878.48 153.39 885.41 152.46 892.04 154.25 C 901.31 156.35 908.80 163.13 913.71 171.04 C 899.17 182.92 887.92 199.43 884.52 218.10 C 882.34 230.37 882.06 243.50 886.79 255.24 C 889.57 262.28 896.01 268.31 903.91 268.49 C 913.36 269.48 921.77 263.27 926.78 255.75 C 935.52 242.73 939.03 227.06 941.34 211.78 C 943.60 197.53 939.63 182.82 931.91 170.79 C 946.26 161.83 962.96 156.38 979.93 156.02 C 997.38 155.65 1014.78 157.46 1032.07 159.66 C 1026.04 164.37 1021.03 170.23 1016.68 176.49 C 1007.78 189.26 1000.80 203.25 994.43 217.42 C 975.95 259.45 962.74 303.57 950.97 347.88 C 946.06 367.34 940.17 386.65 931.62 404.85 C 925.62 417.41 918.44 429.70 908.41 439.50 C 900.41 447.71 889.83 453.93 878.25 454.95 C 866.16 456.33 854.81 450.06 845.59 442.86 C 859.51 426.28 871.22 407.54 877.87 386.83 C 884.58 366.62 886.22 345.05 884.89 323.89 C 884.22 310.77 881.80 297.59 876.44 285.54 C 871.59 274.64 864.21 264.11 853.26 258.71 C 845.59 254.75 836.14 254.78 828.41 258.53 C 818.35 263.28 811.03 272.33 806.09 282.08 C 799.12 296.33 796.24 312.21 795.25 327.93 C 793.89 353.20 797.06 378.78 805.08 402.80 C 810.27 418.32 819.08 432.84 831.53 443.60 C 825.80 450.16 819.70 456.44 812.78 461.75 C 810.00 464.03 806.97 467.16 807.54 471.08 C 807.68 473.40 809.53 474.97 811.05 476.50 C 821.13 468.28 830.55 459.25 839.40 449.73 C 848.66 455.93 859.05 460.66 870.03 462.74 C 885.60 463.35 901.51 459.07 914.26 450.00 C 926.37 441.63 935.68 429.90 943.47 417.56 C 950.85 405.44 956.73 392.49 962.46 379.54 C 974.66 351.34 985.37 322.51 995.40 293.47 C 996.09 291.60 997.41 290.06 998.56 288.46 C 1013.85 267.68 1030.41 247.85 1047.97 228.95 C 1063.21 213.10 1078.71 196.78 1098.29 186.23 C 1107.18 181.42 1116.73 176.86 1127.02 176.47 C 1133.61 176.08 1140.75 178.93 1144.05 184.89 C 1147.45 191.68 1146.74 199.61 1145.44 206.84 C 1143.23 218.14 1139.05 228.93 1134.41 239.43 C 1126.37 257.77 1113.95 273.78 1100.62 288.58 C 1085.64 304.77 1069.55 320.31 1050.42 331.55 C 1036.88 329.34 1022.42 328.41 1009.39 333.49 C 1004.65 335.35 999.23 339.33 1000.03 345.09 C 1000.99 349.58 1006.21 350.87 1010.12 351.47 C 1023.49 352.81 1036.90 349.71 1049.37 345.06 C 1053.61 346.96 1058.03 349.16 1060.87 352.99 C 1064.87 358.91 1066.39 366.11 1067.18 373.11 C 1068.86 390.41 1064.31 408.62 1053.31 422.26 C 1045.08 432.46 1033.59 440.61 1020.48 442.80 C 1008.00 444.98 995.23 441.46 984.12 435.84 C 980.74 434.15 976.76 433.03 973.05 434.25 C 969.56 435.31 967.14 438.27 965.36 441.30 C 985.98 449.79 1009.07 453.54 1031.11 449.02 C 1048.74 445.49 1065.11 436.42 1077.73 423.66 C 1083.49 417.61 1088.91 411.05 1092.43 403.42 C 1099.44 389.03 1099.87 371.17 1092.04 357.02 C 1086.90 347.40 1078.07 340.08 1068.03 336.01 C 1096.87 320.20 1122.34 298.72 1144.20 274.23 C 1156.82 259.70 1167.16 242.98 1173.36 224.70 C 1176.95 213.63 1179.27 201.63 1176.64 190.09 C 1174.60 180.97 1167.84 173.75 1160.41 168.50 C 1150.40 161.64 1137.53 160.35 1125.88 162.90 C 1112.75 165.75 1100.68 172.14 1089.57 179.52 C 1077.72 187.45 1066.77 196.63 1056.33 206.32 C 1037.96 223.55 1021.04 242.30 1005.43 262.07 C 1015.71 225.05 1030.49 188.99 1051.58 156.77 C 1061.94 154.58 1072.32 152.11 1082.12 148.04 C 1087.82 145.66 1092.55 139.03 1090.14 132.78 C 1087.76 126.84 1080.02 125.03 1074.53 127.52 M 547.53 133.81 C 547.00 137.33 546.30 141.04 543.80 143.75 C 540.52 147.85 535.00 149.40 529.93 148.95 C 522.13 148.39 513.33 148.74 507.20 154.24 C 502.68 158.44 499.22 163.62 495.54 168.55 C 482.97 185.95 471.56 204.18 460.90 222.81 C 442.21 255.14 427.78 289.71 414.58 324.59 C 409.30 339.24 403.80 353.88 399.88 368.95 C 406.37 387.11 412.32 406.73 408.22 426.13 C 405.84 438.58 396.39 449.83 383.87 452.84 C 378.48 454.17 372.97 452.75 368.09 450.41 C 371.88 456.65 378.47 461.48 385.93 461.77 C 394.33 462.32 402.28 457.88 407.92 451.94 C 414.40 444.95 417.31 435.38 417.86 426.01 C 418.94 409.59 414.20 393.53 408.68 378.26 C 408.00 376.59 408.91 374.87 409.30 373.26 C 421.01 335.66 435.56 298.96 452.35 263.35 C 462.34 242.88 473.64 223.05 485.84 203.82 C 494.41 190.57 503.05 177.31 513.13 165.15 C 518.84 158.13 528.52 156.57 537.06 157.36 C 542.99 158.03 549.71 156.37 553.11 151.09 C 556.46 146.58 555.79 140.76 555.69 135.49 C 552.99 134.84 550.27 134.26 547.53 133.81 M 1097.47 135.36 C 1098.29 138.81 1099.44 142.36 1098.74 145.94 C 1097.51 153.27 1092.10 159.45 1085.39 162.41 C 1076.08 166.44 1066.15 168.72 1056.34 171.15 C 1044.40 190.28 1034.27 210.60 1026.39 231.73 C 1032.86 225.39 1038.88 218.62 1045.52 212.45 C 1047.37 210.88 1048.59 208.76 1049.60 206.59 C 1053.71 198.24 1058.31 190.15 1063.13 182.19 C 1063.93 181.07 1064.55 179.50 1066.11 179.26 C 1071.70 177.79 1077.37 176.61 1082.88 174.81 C 1089.45 172.67 1096.55 170.70 1101.45 165.48 C 1107.55 159.59 1109.34 149.41 1104.79 142.10 C 1103.09 139.15 1100.31 137.09 1097.47 135.36 M 400.12 155.59 C 400.93 158.94 402.15 162.34 401.58 165.85 C 400.70 173.00 396.11 179.20 390.32 183.28 C 381.54 189.51 370.97 192.52 360.53 194.59 C 358.51 194.91 357.49 196.90 356.30 198.32 C 347.86 210.12 342.41 223.68 337.21 237.13 C 330.73 254.23 325.26 271.68 319.55 289.04 C 322.73 290.46 325.93 291.87 329.10 293.31 C 337.64 269.42 344.49 244.78 355.75 221.94 C 358.79 215.83 362.20 209.85 366.50 204.53 C 367.24 203.31 368.70 203.14 369.96 202.82 C 380.97 200.60 392.20 197.17 401.04 189.96 C 407.88 184.35 412.26 174.63 409.19 165.92 C 407.73 161.37 404.18 157.91 400.12 155.59 M 867.39 170.15 C 869.06 173.73 871.71 177.18 875.68 178.29 C 880.44 180.06 885.13 177.17 889.90 177.03 C 893.70 176.57 897.41 177.57 901.11 178.30 C 901.58 178.01 902.53 177.43 903.01 177.15 C 898.33 171.64 891.30 168.15 884.01 168.46 C 878.36 168.19 873.05 171.25 867.39 170.15 M 943.02 180.63 C 948.57 192.51 951.40 205.78 949.55 218.87 C 947.52 233.18 944.26 247.55 937.54 260.45 C 932.13 271.03 923.16 281.08 910.92 283.21 C 903.87 284.81 896.69 282.79 890.43 279.55 C 893.39 284.21 897.69 288.05 902.84 290.10 C 913.09 294.26 925.49 292.03 933.76 284.72 C 944.89 275.14 950.45 260.91 954.16 247.07 C 957.48 233.39 960.37 218.98 957.10 204.99 C 956.09 199.42 953.62 194.30 951.81 188.98 C 959.74 185.08 968.18 182.17 976.90 180.67 C 987.54 178.90 998.36 179.62 1009.08 180.05 C 1010.93 177.71 1012.70 175.31 1014.36 172.83 C 1002.28 171.55 990.11 170.85 977.97 171.28 C 965.78 171.62 953.96 175.44 943.02 180.63 M 217.46 180.43 C 211.67 183.51 209.46 190.25 208.50 196.32 C 205.58 214.53 211.19 233.04 220.25 248.73 C 223.27 253.48 226.30 258.71 231.45 261.42 C 221.53 245.28 214.27 226.34 216.65 207.09 C 217.39 200.08 219.59 191.77 226.57 188.53 C 234.12 185.23 242.59 187.06 250.35 188.53 C 270.70 192.87 290.53 199.37 310.88 203.71 C 312.51 201.82 313.97 199.80 315.20 197.63 C 289.79 193.55 265.47 184.74 240.29 179.67 C 232.81 178.30 224.56 176.91 217.46 180.43 M 1178.10 180.79 C 1180.12 184.55 1182.52 188.16 1183.73 192.30 C 1187.51 203.87 1186.04 216.39 1182.99 227.95 C 1177.60 247.37 1167.41 265.19 1154.96 280.93 C 1134.83 305.06 1110.92 326.08 1084.33 342.84 C 1087.31 345.46 1090.14 348.25 1092.93 351.07 C 1115.86 337.01 1136.28 319.17 1154.59 299.54 C 1166.21 287.07 1176.12 272.94 1183.46 257.54 C 1190.39 242.79 1195.61 226.50 1194.16 210.03 C 1193.38 198.54 1187.32 187.64 1178.10 180.79 M 1115.11 194.26 C 1100.38 199.91 1087.16 208.99 1075.67 219.71 C 1055.29 238.41 1037.19 259.44 1019.85 280.94 C 1014.10 288.49 1007.75 295.68 1002.88 303.82 C 992.71 332.80 982.14 361.69 969.84 389.85 C 959.75 412.69 948.87 436.02 930.72 453.69 C 918.44 465.99 902.33 474.61 885.04 477.01 C 878.40 477.85 871.52 478.82 864.96 476.98 C 856.49 474.93 848.45 471.40 840.85 467.17 C 831.64 476.20 822.27 485.09 812.11 493.05 C 810.95 492.71 809.80 492.38 808.66 492.05 C 811.20 496.62 815.63 499.46 820.05 501.96 C 830.24 493.84 839.81 484.98 849.06 475.81 C 858.21 480.78 868.00 484.96 878.38 486.43 C 887.57 486.67 896.84 485.38 905.63 482.67 C 921.03 477.96 934.52 468.13 944.95 456.00 C 953.74 446.06 960.77 434.70 966.78 422.90 C 977.12 402.19 986.02 380.76 994.14 359.09 C 992.93 356.20 991.47 353.20 991.81 349.98 C 992.20 344.63 995.38 339.76 999.75 336.77 C 1001.40 335.47 1003.68 334.56 1004.23 332.32 C 1006.36 326.35 1008.46 320.37 1010.48 314.38 C 1011.95 309.70 1015.52 306.18 1018.27 302.25 C 1037.08 277.66 1057.19 253.98 1079.46 232.43 C 1089.32 223.08 1099.84 214.21 1112.01 208.00 C 1120.13 203.81 1128.83 199.59 1138.21 200.06 C 1137.47 197.39 1136.85 194.15 1134.02 192.92 C 1127.95 190.01 1121.07 192.22 1115.11 194.26 M 261.21 240.09 C 260.29 251.75 258.11 263.77 251.81 273.82 C 247.86 280.29 240.86 285.28 233.05 285.05 C 221.70 285.41 211.26 280.10 202.24 273.72 C 204.22 276.72 206.93 279.09 209.69 281.36 C 217.38 287.75 226.89 292.61 237.00 293.18 C 240.59 291.49 243.77 289.03 247.42 287.43 C 251.34 285.41 255.62 284.26 259.71 282.64 C 261.24 281.07 262.11 279.00 263.07 277.05 C 268.22 265.76 269.69 253.21 270.03 240.92 C 267.10 240.56 264.15 240.29 261.21 240.09 M 647.39 242.67 C 641.39 245.13 636.57 250.10 633.94 255.98 C 632.37 259.58 631.68 263.96 633.53 267.59 C 635.31 270.82 639.58 271.53 642.89 270.67 C 649.00 269.13 654.02 264.56 657.22 259.25 C 659.49 255.26 661.08 250.19 659.25 245.74 C 657.25 241.27 651.37 240.97 647.39 242.67 M 666.99 249.60 C 667.70 253.33 668.75 257.17 667.80 260.96 C 665.78 270.56 659.09 278.99 650.40 283.46 C 645.23 286.33 639.12 286.54 633.48 285.14 C 635.83 290.22 640.69 294.17 646.42 294.47 C 655.92 295.29 664.67 289.46 670.29 282.21 C 675.22 275.86 678.25 267.26 675.79 259.31 C 674.56 254.89 671.00 251.58 666.99 249.60 M 179.77 254.00 C 184.78 261.02 189.57 268.26 192.84 276.29 C 203.09 300.74 205.25 327.80 203.96 354.05 C 201.96 386.67 189.87 418.23 170.99 444.78 C 175.05 445.88 179.39 447.65 183.61 446.70 C 191.24 435.68 197.16 423.48 201.97 410.98 C 214.20 378.60 215.51 342.76 208.92 308.98 C 204.58 288.54 196.20 267.70 179.77 254.00 M 696.60 263.66 C 689.84 269.63 683.99 277.55 683.02 286.76 C 682.48 296.19 688.34 304.33 693.98 311.31 C 683.12 322.06 671.48 331.98 659.45 341.39 C 646.36 351.52 632.92 361.26 618.58 369.57 C 612.33 373.02 605.99 376.63 598.98 378.26 C 596.70 378.56 593.59 379.15 592.11 376.90 C 590.44 374.22 591.36 370.84 592.14 368.01 C 594.74 360.00 599.12 352.74 603.49 345.61 C 612.69 331.04 623.08 317.26 633.79 303.77 C 635.06 302.16 635.84 300.14 635.48 298.07 C 633.79 295.10 630.08 294.59 627.00 294.49 C 623.50 294.53 619.68 294.57 616.75 296.74 C 611.89 300.13 608.05 304.71 604.18 309.13 C 596.34 318.41 589.16 328.22 582.24 338.19 C 577.79 345.67 570.11 350.29 563.15 355.15 C 554.99 360.38 546.50 365.55 537.05 368.07 C 533.44 369.46 529.94 366.99 527.91 364.15 C 522.30 356.49 519.82 347.16 516.58 338.37 C 515.54 335.40 513.57 332.67 510.78 331.15 C 508.09 329.75 504.66 330.53 502.66 332.73 C 500.40 335.13 498.35 337.72 495.92 339.95 C 483.59 351.65 470.99 363.12 457.36 373.29 C 453.01 376.31 448.69 379.78 443.42 380.99 C 442.23 379.53 440.99 377.97 440.82 376.03 C 440.01 368.85 443.78 362.28 447.25 356.30 C 456.48 341.94 468.39 329.47 481.07 318.12 C 488.54 311.85 496.59 305.56 506.24 303.19 C 509.48 302.34 514.20 302.70 515.52 306.36 C 516.76 311.13 513.27 315.30 510.43 318.71 C 511.91 321.24 513.34 325.37 516.96 325.00 C 520.20 322.22 521.80 317.98 523.43 314.14 C 526.01 307.54 522.90 299.55 516.64 296.33 C 511.59 293.97 505.74 294.55 500.43 295.59 C 488.58 298.21 477.68 304.01 467.67 310.73 C 452.62 321.04 439.39 334.16 429.47 349.50 C 424.42 357.47 420.04 366.37 419.74 375.98 C 419.61 381.86 422.33 388.37 428.12 390.65 C 435.03 393.32 442.85 391.94 449.57 389.34 C 463.14 383.74 473.43 372.75 482.86 361.87 C 485.81 358.81 488.82 355.29 493.03 354.03 C 496.13 353.67 497.41 357.07 498.50 359.34 C 502.11 367.33 507.44 375.80 516.38 378.37 C 525.84 380.74 535.17 376.49 543.62 372.67 C 554.35 367.56 564.54 361.37 574.34 354.66 C 571.11 361.62 568.25 369.69 570.80 377.32 C 572.52 382.93 578.48 386.09 584.08 386.22 C 591.71 386.43 599.12 384.02 606.12 381.19 C 621.65 374.62 636.17 365.78 649.36 355.28 C 665.78 342.43 681.56 328.72 696.60 314.28 C 699.86 318.02 703.74 321.21 706.81 325.14 C 707.60 327.23 705.66 328.99 704.53 330.52 C 697.28 338.29 688.60 344.52 680.47 351.31 C 671.59 357.94 666.72 370.06 669.34 380.92 C 671.15 388.46 678.64 393.13 685.97 394.05 C 700.57 396.44 714.77 390.28 727.15 383.16 C 743.83 373.25 758.91 360.78 772.58 347.04 C 771.32 345.96 770.09 344.88 768.85 343.81 C 756.88 356.19 742.90 366.51 728.03 375.13 C 720.15 379.47 712.07 383.75 703.23 385.77 C 703.47 385.37 703.94 384.59 704.18 384.19 C 707.78 382.47 712.25 382.11 715.11 379.12 C 718.12 374.79 721.10 370.43 724.12 366.10 C 729.86 357.23 735.51 346.98 733.72 336.03 C 732.93 330.06 728.07 326.10 725.23 321.13 C 734.95 310.99 743.86 298.56 744.84 284.10 C 745.65 276.07 741.38 267.96 734.14 264.32 C 735.87 268.64 737.02 273.32 736.22 277.98 C 734.43 291.67 725.81 303.16 716.64 312.97 C 719.17 317.47 723.42 320.99 724.78 326.13 C 726.24 330.76 725.74 335.75 724.34 340.34 C 721.26 350.52 714.68 359.05 708.70 367.67 C 705.44 372.73 701.65 377.78 700.64 383.87 C 701.10 384.40 702.01 385.44 702.46 385.96 C 700.16 386.16 697.15 386.62 695.47 384.62 C 692.95 381.44 691.93 377.05 693.06 373.13 C 698.07 356.89 713.09 345.70 717.09 328.99 C 718.27 324.47 717.14 319.45 713.85 316.08 C 710.61 312.60 708.66 308.21 707.60 303.62 C 713.86 297.12 720.22 290.46 724.17 282.23 C 727.08 276.42 729.44 269.63 727.66 263.12 C 726.15 257.65 720.05 255.02 714.78 255.27 C 707.95 255.75 701.73 259.31 696.60 263.66 M 1341.84 255.95 C 1334.12 258.29 1327.00 262.65 1321.39 268.44 C 1315.86 273.86 1312.07 281.21 1311.64 289.00 C 1310.95 297.07 1314.36 305.13 1320.34 310.54 C 1302.57 327.29 1283.48 342.77 1262.95 356.02 C 1256.00 360.23 1248.98 364.75 1241.01 366.72 C 1237.74 367.79 1234.83 365.42 1232.96 363.01 C 1226.00 354.21 1222.66 343.12 1215.48 334.48 C 1213.57 332.20 1210.40 329.94 1207.36 331.43 C 1201.72 334.51 1197.50 339.51 1192.94 343.92 C 1181.16 355.47 1170.57 368.46 1156.95 377.97 C 1153.80 379.90 1149.90 382.50 1146.12 380.90 C 1142.33 378.76 1142.23 373.65 1143.21 369.92 C 1144.87 363.74 1148.30 358.23 1151.89 353.00 C 1159.42 342.38 1168.29 332.76 1177.69 323.78 C 1185.38 316.52 1193.63 309.59 1203.36 305.23 C 1206.95 303.82 1210.93 302.10 1214.84 303.23 C 1217.09 304.08 1217.47 306.76 1217.87 308.84 C 1218.54 313.22 1213.59 315.85 1213.68 320.13 C 1213.77 322.00 1215.26 323.28 1216.52 324.48 C 1221.19 318.54 1226.34 311.93 1226.53 304.04 C 1226.76 299.52 1222.99 296.12 1218.96 294.95 C 1211.38 292.68 1203.37 294.81 1196.18 297.43 C 1185.30 301.67 1175.40 308.06 1166.25 315.25 C 1152.92 325.86 1140.76 338.24 1131.88 352.86 C 1127.48 360.54 1123.39 369.12 1124.24 378.20 C 1124.71 383.77 1128.40 389.37 1134.10 390.60 C 1141.92 392.14 1149.61 388.78 1156.43 385.29 C 1171.48 377.08 1184.43 365.47 1195.95 352.88 C 1199.77 361.71 1205.02 370.52 1213.41 375.67 C 1219.87 379.72 1227.91 378.73 1235.08 377.70 C 1250.84 374.75 1263.89 364.71 1276.59 355.56 C 1293.62 343.01 1309.71 329.22 1325.15 314.78 C 1328.65 318.45 1333.15 321.89 1334.33 327.09 C 1333.54 330.30 1330.06 331.75 1327.90 333.98 C 1318.97 341.59 1310.04 349.43 1303.10 358.98 C 1299.88 363.69 1296.67 369.07 1297.21 375.01 C 1297.51 381.54 1301.53 387.62 1307.19 390.80 C 1314.61 395.12 1323.70 395.21 1331.90 393.44 C 1343.41 390.90 1353.67 384.74 1363.38 378.26 C 1377.41 368.57 1390.30 357.22 1401.69 344.54 C 1399.79 344.14 1397.88 343.79 1396.01 343.42 C 1383.43 355.08 1370.75 366.78 1356.58 376.53 C 1350.13 381.12 1342.75 384.52 1334.89 385.73 C 1336.84 384.42 1338.69 382.85 1339.83 380.75 C 1345.22 371.42 1352.36 363.28 1358.48 354.44 C 1361.39 350.22 1363.76 345.31 1363.57 340.06 C 1363.72 332.56 1358.94 326.30 1354.62 320.63 C 1359.85 314.14 1365.97 308.10 1369.28 300.31 C 1371.86 293.53 1373.55 286.18 1372.77 278.90 C 1372.15 272.44 1368.49 266.16 1362.50 263.32 C 1366.04 273.11 1364.35 283.94 1360.23 293.26 C 1356.65 300.36 1351.24 306.29 1346.01 312.19 C 1349.22 317.02 1353.21 321.58 1354.60 327.36 C 1356.18 333.12 1354.46 339.26 1351.24 344.13 C 1344.42 354.61 1335.74 363.86 1329.86 374.95 C 1328.24 378.28 1326.09 382.34 1328.50 385.83 C 1325.32 385.10 1321.82 383.80 1320.32 380.66 C 1317.88 375.96 1319.76 370.41 1321.87 365.95 C 1327.53 354.20 1336.51 344.57 1343.75 333.84 C 1346.08 330.47 1347.83 326.25 1346.65 322.12 C 1344.74 315.14 1338.40 310.56 1336.03 303.77 C 1344.47 295.02 1354.12 285.70 1355.82 273.03 C 1356.65 267.54 1357.04 260.57 1352.23 256.72 C 1349.32 254.18 1345.20 254.96 1341.84 255.95 M 874.20 272.44 C 877.10 277.36 880.56 281.96 882.87 287.22 C 892.20 306.66 893.82 328.68 893.45 349.93 C 892.89 370.60 888.61 391.23 880.21 410.15 C 874.31 423.80 866.30 436.41 857.34 448.23 C 860.84 450.03 864.56 452.72 868.54 452.65 C 888.36 426.70 900.43 394.73 901.70 362.01 C 902.43 342.58 901.56 322.62 895.00 304.13 C 890.67 292.22 884.31 280.39 874.20 272.44 M 643.40 302.66 C 644.24 307.13 643.30 311.88 640.39 315.46 C 634.48 322.84 628.64 330.29 623.14 337.98 C 614.56 350.31 605.57 362.64 599.95 376.67 C 606.05 374.34 612.23 371.60 617.36 367.55 C 626.78 352.56 637.25 338.24 648.38 324.46 C 651.89 320.30 653.56 314.10 650.91 309.08 C 649.47 305.92 646.40 304.10 643.40 302.66 M 1233.11 303.39 C 1233.98 306.66 1235.17 310.00 1234.59 313.44 C 1233.41 322.46 1228.05 330.15 1222.47 337.06 C 1229.18 346.00 1233.11 356.63 1239.66 365.68 C 1240.61 365.43 1241.58 365.19 1242.56 364.94 C 1239.13 358.13 1235.44 351.44 1231.10 345.16 C 1237.23 337.75 1243.02 329.02 1243.17 319.07 C 1243.25 312.36 1238.94 306.39 1233.11 303.39 M 529.55 304.44 C 531.09 308.43 532.83 312.57 532.39 316.95 C 531.71 325.00 527.70 332.48 522.35 338.41 C 526.78 347.91 528.65 358.68 534.98 367.24 C 535.76 367.08 537.33 366.77 538.11 366.62 C 536.32 359.73 533.38 353.19 531.02 346.48 C 537.29 339.63 541.72 330.32 540.69 320.87 C 539.78 314.05 535.34 308.01 529.55 304.44 M 260.69 308.68 C 254.70 310.97 251.94 317.61 246.03 320.07 C 241.58 322.49 236.36 322.32 231.64 320.87 C 234.13 325.61 238.45 329.75 244.00 330.33 C 251.35 331.48 258.20 327.17 262.82 321.79 C 267.35 318.14 267.83 311.99 269.78 306.88 C 266.69 307.07 263.55 307.40 260.69 308.68 M 310.19 316.54 C 300.34 344.57 289.39 372.29 275.87 398.78 C 266.30 416.81 256.63 435.42 241.43 449.43 C 224.67 465.44 201.29 475.06 177.97 473.02 C 169.04 472.45 160.50 469.70 152.17 466.63 C 139.32 480.76 120.79 491.03 101.24 489.61 C 97.60 488.77 97.25 493.60 95.75 495.84 C 102.41 496.97 109.10 498.73 115.92 498.16 C 122.87 497.64 129.76 495.97 136.13 493.12 C 145.68 489.14 153.42 482.16 160.85 475.16 C 175.09 481.28 191.10 483.33 206.36 480.46 C 226.49 476.85 244.52 465.14 257.72 449.76 C 268.75 436.78 276.73 421.59 284.64 406.61 C 297.94 380.35 308.81 352.93 318.57 325.18 C 326.94 328.80 334.77 333.62 342.17 338.93 C 346.04 341.63 349.39 345.00 353.40 347.51 C 341.29 334.46 326.47 323.77 310.19 316.54 M 494.67 324.71 C 483.45 332.62 473.90 342.64 464.94 352.98 C 459.18 359.87 453.49 367.08 450.06 375.47 C 463.71 365.92 476.05 354.61 488.21 343.26 C 493.33 338.88 496.76 332.48 503.23 329.81 C 502.52 327.82 501.75 325.86 500.92 323.92 C 502.35 322.32 503.73 320.68 505.11 319.03 C 501.39 320.45 497.92 322.42 494.67 324.71 M 1196.47 325.50 C 1182.84 335.30 1171.27 347.71 1161.12 361.00 C 1157.05 366.74 1152.62 372.52 1150.76 379.42 C 1163.36 371.09 1173.14 359.31 1183.73 348.69 C 1190.55 342.08 1196.74 334.35 1205.58 330.35 C 1205.44 326.52 1206.20 322.75 1207.56 319.18 C 1203.67 320.93 1199.93 323.02 1196.47 325.50 M 686.52 342.36 C 690.68 339.80 694.78 336.69 697.42 332.51 C 693.17 334.97 689.59 338.56 686.52 342.36 M 1254.40 386.56 C 1244.05 391.84 1232.29 394.53 1220.67 393.56 C 1215.41 393.05 1210.78 390.39 1206.22 387.96 C 1210.22 393.25 1215.50 397.71 1221.68 400.24 C 1228.77 403.13 1236.63 402.40 1244.03 401.29 C 1255.53 399.46 1265.95 393.80 1275.57 387.47 C 1280.04 384.30 1284.92 381.57 1288.91 377.79 C 1291.12 367.11 1298.28 358.66 1305.18 350.62 C 1288.77 363.25 1272.82 376.86 1254.40 386.56 M 1410.16 354.16 C 1398.23 367.96 1384.54 380.24 1369.63 390.73 C 1356.13 400.00 1341.19 408.79 1324.42 409.61 C 1316.45 410.18 1308.62 407.81 1301.67 404.05 C 1305.35 410.23 1311.81 414.27 1318.55 416.40 C 1328.74 419.40 1339.78 418.11 1349.70 414.64 C 1361.70 410.27 1372.54 403.28 1382.79 395.77 C 1398.95 383.85 1413.19 369.52 1425.96 354.07 C 1421.55 353.16 1417.11 352.45 1412.71 351.55 C 1411.83 352.41 1410.97 353.27 1410.16 354.16 M 1094.50 352.51 C 1096.74 356.60 1099.64 360.33 1101.38 364.70 C 1107.47 378.59 1107.41 394.82 1101.90 408.88 C 1098.35 418.47 1092.26 426.89 1085.36 434.34 C 1074.44 446.14 1060.64 455.29 1045.43 460.51 C 1028.57 466.38 1010.23 467.43 992.68 464.47 C 982.96 463.04 973.70 459.72 964.34 456.91 C 963.79 458.32 963.26 459.74 962.74 461.16 C 974.66 466.36 987.04 470.71 999.92 472.82 C 1018.62 476.05 1038.26 474.86 1056.10 468.14 C 1075.36 460.99 1092.07 447.50 1103.58 430.53 C 1111.98 417.82 1116.17 402.08 1113.86 386.92 C 1111.96 373.59 1105.06 360.93 1094.50 352.51 M 746.22 387.26 C 733.03 396.62 718.76 405.28 702.76 408.68 C 692.54 410.95 681.65 409.59 672.29 404.91 C 676.96 412.83 686.05 416.93 694.92 417.82 C 710.52 419.84 725.66 413.45 738.95 405.90 C 755.62 396.19 770.72 383.92 784.48 370.44 C 785.56 369.27 786.90 368.25 787.61 366.79 C 787.62 363.24 787.06 359.72 786.82 356.19 C 785.85 355.43 784.88 354.68 783.93 353.93 C 772.51 366.25 759.81 377.38 746.22 387.26 M 654.99 368.10 C 640.75 379.50 625.01 389.09 608.16 396.09 C 596.94 400.63 583.89 403.82 572.37 398.42 C 575.58 404.10 581.28 408.21 587.73 409.29 C 598.36 411.09 608.99 407.69 618.71 403.66 C 633.66 397.19 647.77 388.77 660.59 378.71 C 661.67 370.13 665.55 362.31 670.83 355.56 C 665.33 359.45 660.42 364.11 654.99 368.10 M 1000.55 364.30 C 1004.85 374.20 1017.06 375.79 1026.60 375.45 C 1036.87 374.89 1047.14 372.97 1056.78 369.32 C 1055.37 365.58 1052.77 362.37 1049.02 360.82 C 1033.58 365.80 1016.39 369.93 1000.55 364.30 M 484.83 378.80 C 475.99 388.72 465.95 398.10 453.62 403.45 C 443.88 407.69 432.37 408.87 422.56 404.18 C 425.87 409.77 431.54 413.85 437.93 415.09 C 446.50 416.76 455.45 414.89 463.31 411.33 C 477.38 404.92 488.02 393.28 498.06 381.89 C 495.89 378.42 493.70 374.97 491.81 371.34 C 489.35 373.71 487.08 376.24 484.83 378.80 M 1150.68 403.67 C 1143.07 406.62 1134.42 407.13 1126.91 403.58 C 1129.85 408.89 1135.00 413.01 1141.04 414.09 C 1149.41 415.65 1157.90 413.07 1165.41 409.49 C 1178.79 402.88 1190.59 393.45 1201.26 383.10 C 1198.62 380.16 1196.21 377.03 1193.93 373.81 C 1181.09 385.75 1167.31 397.44 1150.68 403.67 M 527.02 393.83 C 519.60 395.34 512.07 393.12 505.65 389.42 C 509.76 395.04 515.40 399.85 522.24 401.67 C 528.92 403.64 536.06 402.65 542.58 400.53 C 550.27 398.01 557.72 394.71 564.72 390.63 C 562.99 387.10 562.00 383.29 561.32 379.44 C 550.52 385.51 539.32 391.51 527.02 393.83 M 96.00 505.75 C 96.00 526.50 96.00 547.25 96.00 568.00 C 533.42 568.00 970.83 568.00 1408.25 568.00 C 1408.25 547.25 1408.25 526.50 1408.25 505.75 C 970.83 505.75 533.42 505.75 96.00 505.75 Z" />
<path fill="#ffffff" opacity="1.00" d=" M 892.89 234.73 C 893.04 214.12 904.10 195.00 918.64 181.00 C 925.34 199.00 928.04 219.07 923.45 237.91 C 921.33 245.94 917.95 254.11 911.58 259.70 C 909.09 261.96 905.13 263.29 902.31 260.82 C 894.91 254.49 893.03 243.99 892.89 234.73 M 901.43 235.65 C 900.36 244.20 901.32 253.42 906.10 260.80 C 907.45 259.56 908.75 258.24 909.90 256.79 C 908.54 246.13 910.68 235.18 915.53 225.63 C 916.34 223.82 917.70 222.05 917.38 219.95 C 917.00 214.68 916.29 209.41 915.01 204.27 C 908.02 213.40 902.90 224.18 901.43 235.65 Z" />
<path fill="#ffffff" opacity="1.00" d=" M 121.06 256.07 C 127.65 248.50 139.60 246.73 148.21 251.76 C 157.21 256.99 162.31 266.72 165.77 276.18 C 172.67 296.32 173.49 317.90 173.50 339.00 C 172.89 365.69 171.47 393.15 161.17 418.14 C 158.64 424.29 155.28 430.07 151.48 435.53 C 129.54 418.37 115.31 392.81 108.46 366.11 C 102.00 341.22 102.93 315.04 107.16 289.88 C 109.52 277.92 112.76 265.38 121.06 256.07 M 125.45 270.41 C 120.81 276.63 118.38 284.16 116.56 291.61 C 113.46 305.17 112.28 319.10 111.99 332.98 C 111.41 364.66 121.24 396.92 141.48 421.54 C 143.80 424.35 146.13 427.21 149.21 429.24 C 147.27 425.75 144.64 422.73 142.50 419.39 C 129.10 399.13 121.81 375.10 120.61 350.91 C 120.11 336.60 121.04 322.24 123.36 308.11 C 125.00 299.09 127.12 289.92 131.80 281.94 C 134.32 277.75 138.00 273.69 143.02 272.77 C 146.17 272.00 149.33 273.07 152.39 273.69 C 149.03 268.97 144.30 263.88 137.98 264.18 C 133.00 263.67 128.35 266.54 125.45 270.41 Z" />
<path fill="#ffffff" opacity="1.00" d=" M 706.49 274.43 C 708.35 269.23 713.28 264.68 719.11 265.19 C 721.66 268.39 720.62 272.68 719.37 276.19 C 716.41 283.99 711.53 290.88 706.35 297.35 C 705.32 289.79 703.60 281.79 706.49 274.43 Z" />
<path fill="#ffffff" opacity="1.00" d=" M 1337.78 269.74 C 1338.95 267.04 1341.57 263.20 1344.97 264.96 C 1348.63 266.13 1348.74 270.69 1347.83 273.77 C 1345.26 282.47 1339.51 289.78 1333.73 296.61 C 1331.85 287.48 1334.28 278.16 1337.78 269.74 Z" />
<path fill="#ffffff" opacity="1.00" d=" M 816.34 282.46 C 819.37 277.13 824.44 272.05 830.96 271.97 C 839.12 271.70 845.76 277.78 849.98 284.20 C 858.27 297.04 862.02 312.18 864.59 327.07 C 867.45 345.96 868.39 365.50 864.19 384.26 C 859.58 403.16 849.78 420.41 837.99 435.74 C 823.32 419.98 814.32 399.54 810.32 378.53 C 806.28 357.24 805.08 335.32 807.54 313.77 C 808.90 303.00 811.02 292.04 816.34 282.46 M 822.71 294.68 C 818.34 303.26 816.72 312.91 815.53 322.37 C 813.40 343.61 814.34 365.22 818.70 386.13 C 821.86 401.67 828.10 416.65 837.42 429.50 C 838.00 428.67 838.60 427.84 839.22 427.02 C 833.18 416.14 829.02 404.27 826.72 392.05 C 822.77 371.66 821.83 350.65 824.08 330.00 C 825.17 321.34 826.75 312.58 830.43 304.60 C 832.06 301.37 833.86 297.81 837.23 296.09 C 839.23 294.91 841.52 296.01 843.62 296.22 C 840.66 291.89 836.71 287.21 831.07 286.86 C 827.01 287.59 824.50 291.28 822.71 294.68 Z" />
<path fill="#ffffff" opacity="1.00" d=" M 1011.88 339.81 C 1019.02 336.82 1027.02 338.92 1034.32 340.22 C 1027.60 342.90 1020.51 346.26 1013.11 345.46 C 1010.05 345.37 1009.11 341.10 1011.88 339.81 Z" />
<path fill="#ffffff" opacity="1.00" d=" M 387.37 376.38 C 391.24 385.03 394.13 394.32 394.19 403.88 C 393.89 409.36 392.99 415.69 388.54 419.43 C 386.69 421.27 383.88 419.74 383.27 417.54 C 381.67 412.87 382.22 407.81 382.60 402.99 C 383.55 394.02 385.36 385.16 387.37 376.38 Z" />
<path fill="#ffffff" opacity="1.00" d=" M 538.76 522.53 C 542.82 513.92 556.07 512.87 562.32 519.60 C 564.26 521.79 565.09 524.67 565.09 527.57 C 563.49 527.58 561.89 527.60 560.30 527.65 C 559.69 522.36 554.22 518.16 548.97 519.94 C 544.51 520.85 541.10 526.64 544.31 530.51 C 548.40 534.69 554.95 534.06 559.80 536.92 C 565.97 539.75 568.33 548.20 564.65 553.88 C 559.68 561.92 547.24 562.70 540.42 556.65 C 537.70 554.32 536.68 550.68 536.46 547.23 C 538.16 547.20 539.86 547.19 541.58 547.17 C 541.70 553.38 548.31 557.74 554.13 555.90 C 559.13 555.02 563.15 548.88 560.15 544.23 C 555.52 537.46 545.43 539.79 540.10 533.92 C 537.45 530.81 537.48 526.20 538.76 522.53 Z" />
<path fill="#ffffff" opacity="1.00" d=" M 825.57 515.71 C 835.17 513.94 845.85 517.29 852.01 525.04 C 856.81 531.00 858.06 539.72 854.56 546.63 C 849.57 557.28 836.43 562.44 825.25 560.04 C 817.40 558.61 810.13 553.48 806.77 546.17 C 804.78 542.13 804.90 537.43 805.60 533.10 C 807.90 523.90 816.46 517.31 825.57 515.71 M 824.39 520.58 C 818.31 522.42 813.02 527.06 811.05 533.18 C 809.87 537.23 810.11 541.82 812.23 545.53 C 815.95 552.62 824.16 556.66 832.03 556.23 C 842.28 555.84 852.58 546.85 851.19 536.00 C 849.59 523.98 835.45 516.75 824.39 520.58 Z" />
<path fill="#ffffff" opacity="1.00" d=" M 641.09 516.03 C 643.03 516.00 644.97 516.00 646.92 516.03 C 653.76 530.66 660.85 545.18 667.75 559.79 C 665.78 559.79 663.81 559.78 661.85 559.79 C 659.70 554.95 657.31 550.22 655.10 545.40 C 647.69 545.38 640.28 545.39 632.87 545.40 C 630.48 550.19 628.25 555.06 625.79 559.82 C 623.93 559.79 622.09 559.78 620.25 559.78 C 627.30 545.25 634.14 530.61 641.09 516.03 M 634.84 540.97 C 640.86 541.01 646.89 541.03 652.91 540.96 C 650.01 534.46 646.81 528.10 644.00 521.56 C 641.12 528.11 637.94 534.52 634.84 540.97 Z" />
<path fill="#ffffff" opacity="1.00" d=" M 725.41 516.01 C 727.13 516.00 728.85 516.00 730.59 516.01 C 730.57 529.15 730.61 542.29 730.57 555.43 C 737.25 555.38 743.92 555.45 750.60 555.39 C 750.59 556.85 750.58 558.32 750.60 559.80 C 742.19 559.79 733.79 559.78 725.39 559.80 C 725.43 545.20 725.40 530.60 725.41 516.01 Z" />
<path fill="#ffffff" opacity="1.00" d=" M 916.00 515.99 C 918.30 515.99 920.62 516.00 922.94 516.06 C 931.63 528.06 940.71 539.79 949.45 551.76 C 949.37 539.84 949.43 527.92 949.41 516.00 C 951.19 515.99 952.99 516.00 954.79 516.01 C 954.79 530.60 954.79 545.20 954.79 559.80 C 953.01 559.78 951.23 559.78 949.47 559.79 C 940.00 547.11 930.43 534.52 921.04 521.79 C 920.95 534.46 921.03 547.12 921.00 559.79 C 919.32 559.78 917.65 559.78 916.00 559.79 C 915.99 545.19 916.00 530.59 916.00 515.99 Z" />
</g>
<g id="#000000ff">
<path fill="#000000" opacity="1.00" d=" M 690.00 74.75 C 699.75 74.75 709.50 74.75 719.25 74.75 C 719.24 76.42 719.24 78.08 719.25 79.75 C 715.25 79.76 711.25 79.75 707.25 79.76 C 707.25 95.50 707.25 111.25 707.25 127.00 C 705.49 127.00 703.74 127.00 702.00 127.00 C 702.00 111.25 702.00 95.50 702.00 79.75 C 698.00 79.75 694.00 79.75 690.00 79.76 C 690.00 78.09 689.99 76.42 690.00 74.75 Z" />
<path fill="#000000" opacity="1.00" d=" M 724.75 74.75 C 726.57 74.75 728.41 74.75 730.25 74.75 C 730.25 82.42 730.25 90.08 730.25 97.75 C 739.08 97.75 747.91 97.75 756.75 97.75 C 756.75 90.08 756.75 82.42 756.75 74.75 C 758.57 74.75 760.41 74.75 762.25 74.75 C 762.25 92.17 762.25 109.58 762.25 127.00 C 760.40 127.00 758.57 127.00 756.75 127.00 C 756.75 118.83 756.74 110.67 756.75 102.51 C 747.92 102.49 739.09 102.51 730.26 102.50 C 730.24 110.66 730.26 118.83 730.25 127.00 C 728.40 127.00 726.57 127.00 724.75 127.00 C 724.75 109.58 724.75 92.17 724.75 74.75 Z" />
<path fill="#000000" opacity="1.00" d=" M 772.25 74.76 C 781.83 74.74 791.41 74.75 801.00 74.75 C 800.98 76.42 800.99 78.09 801.00 79.76 C 793.25 79.75 785.50 79.75 777.76 79.75 C 777.75 85.92 777.75 92.08 777.75 98.24 C 785.25 98.25 792.75 98.25 800.25 98.25 C 800.24 99.83 800.24 101.41 800.25 103.00 C 792.75 103.00 785.25 102.99 777.75 103.00 C 777.75 109.33 777.75 115.67 777.75 122.00 C 785.50 122.01 793.25 122.00 801.00 122.00 C 800.99 123.67 800.99 125.33 801.00 127.00 C 791.41 127.00 781.83 127.00 772.24 127.00 C 772.25 109.58 772.25 92.17 772.25 74.76 Z" />
<path fill="#000000" opacity="1.00" d=" M 558.22 98.00 C 591.73 97.99 625.25 98.00 658.76 98.00 C 658.75 99.50 658.75 101.00 658.75 102.50 C 625.27 102.54 591.79 102.45 558.31 102.54 C 558.27 101.03 558.24 99.52 558.22 98.00 Z" />
<path fill="#000000" opacity="1.00" d=" M 836.00 98.00 C 869.50 98.00 903.00 98.00 936.50 98.00 C 936.49 99.50 936.49 101.00 936.50 102.50 C 903.00 102.51 869.51 102.49 836.01 102.51 C 835.99 101.00 835.98 99.50 836.00 98.00 Z" />
<path fill="#000000" opacity="1.00" d=" M 479.98 147.01 C 491.44 136.69 505.29 128.04 520.89 126.21 C 527.05 125.34 533.31 125.89 539.39 127.13 C 539.03 130.38 536.67 133.82 533.08 133.74 C 524.93 133.83 516.33 132.99 508.77 136.74 C 499.98 140.58 494.90 149.10 489.31 156.41 C 468.22 185.89 449.56 217.17 433.98 249.91 C 417.29 286.42 402.41 323.85 391.10 362.39 C 396.80 376.25 401.16 390.91 401.51 405.99 C 401.51 414.93 399.66 424.53 393.36 431.27 C 389.36 435.28 383.94 438.56 378.10 438.22 C 372.92 437.85 368.74 434.01 366.34 429.65 C 361.97 421.78 361.27 412.34 362.80 403.59 C 365.58 386.58 369.79 369.84 374.18 353.18 C 357.33 328.73 333.19 309.27 305.44 298.57 C 295.91 326.44 285.35 354.00 272.49 380.52 C 265.80 394.13 258.55 407.50 250.10 420.11 C 239.18 436.03 223.54 449.22 204.91 454.96 C 187.09 460.55 167.13 458.57 150.71 449.70 C 144.80 455.47 139.25 461.76 132.15 466.12 C 122.71 472.23 111.34 475.46 100.08 474.41 C 101.42 471.63 102.81 468.88 104.17 466.12 C 118.45 461.97 132.27 455.33 143.16 445.04 C 132.60 437.19 124.47 426.53 118.02 415.18 C 108.21 397.72 101.64 378.58 97.43 359.04 C 91.53 332.37 91.73 304.29 98.62 277.84 C 102.37 264.35 108.20 250.40 119.66 241.66 C 129.58 233.97 143.57 233.66 154.86 238.34 C 166.01 242.97 174.54 252.27 180.43 262.59 C 191.63 282.47 195.41 305.62 196.08 328.18 C 197.52 360.87 189.03 393.91 171.81 421.75 C 167.91 428.36 163.23 434.45 158.70 440.62 C 167.93 445.90 178.79 450.02 189.53 447.36 C 205.36 443.68 217.44 431.53 226.91 418.95 C 243.61 396.58 253.81 370.29 263.17 344.21 C 269.37 326.94 275.18 309.53 281.03 292.13 C 270.27 290.69 257.71 291.30 249.63 299.51 C 246.57 302.93 243.01 307.02 237.97 306.80 C 234.86 307.15 232.59 304.68 231.10 302.28 C 244.48 287.57 264.77 279.92 284.53 281.26 C 287.87 270.77 291.32 260.31 294.61 249.80 C 297.27 241.79 299.43 233.58 302.98 225.90 C 310.35 209.86 320.94 195.39 333.44 182.97 C 325.92 184.10 318.32 182.93 310.90 181.64 C 287.25 177.18 264.44 169.15 240.84 164.51 C 231.57 162.77 221.21 161.75 212.76 166.82 C 205.52 170.97 201.97 179.24 200.64 187.15 C 197.27 206.17 202.53 225.68 211.33 242.53 C 215.54 249.96 220.36 257.99 228.36 261.80 C 233.09 264.22 238.75 261.63 241.46 257.43 C 246.20 250.14 247.18 241.22 247.83 232.75 C 249.57 232.95 251.31 233.14 253.06 233.33 C 252.08 243.03 250.52 253.03 245.58 261.60 C 243.04 266.09 238.54 269.93 233.16 269.99 C 222.63 269.99 212.62 265.10 204.97 258.08 C 194.29 248.30 187.36 235.00 183.43 221.20 C 179.52 207.17 180.53 191.52 187.59 178.64 C 193.62 167.63 203.82 158.75 215.93 155.15 C 225.04 152.42 234.75 152.72 244.07 154.06 C 260.05 156.43 275.44 161.52 291.23 164.77 C 309.23 168.51 327.52 170.69 345.86 171.99 C 353.65 164.31 361.87 157.00 370.98 150.91 C 374.53 148.50 378.66 146.65 383.05 146.96 C 387.84 146.76 392.82 150.12 393.44 155.08 C 394.19 161.21 390.13 166.80 385.24 170.06 C 376.35 176.07 365.62 178.37 355.24 180.30 C 344.03 191.88 337.79 207.18 331.75 221.87 C 323.31 243.19 316.64 265.15 309.44 286.90 C 337.00 296.30 362.14 313.92 378.46 338.26 C 384.61 317.44 391.69 296.89 399.94 276.80 C 409.96 252.39 422.13 228.92 435.22 206.03 C 447.76 184.74 461.65 163.81 479.98 147.01 M 121.06 256.07 C 112.76 265.38 109.52 277.92 107.16 289.88 C 102.93 315.04 102.00 341.22 108.46 366.11 C 115.31 392.81 129.54 418.37 151.48 435.53 C 155.28 430.07 158.64 424.29 161.17 418.14 C 171.47 393.15 172.89 365.69 173.50 339.00 C 173.49 317.90 172.67 296.32 165.77 276.18 C 162.31 266.72 157.21 256.99 148.21 251.76 C 139.60 246.73 127.65 248.50 121.06 256.07 M 387.37 376.38 C 385.36 385.16 383.55 394.02 382.60 402.99 C 382.22 407.81 381.67 412.87 383.27 417.54 C 383.88 419.74 386.69 421.27 388.54 419.43 C 392.99 415.69 393.89 409.36 394.19 403.88 C 394.13 394.32 391.24 385.03 387.37 376.38 Z" />
<path fill="#000000" opacity="1.00" d=" M 1074.53 127.52 C 1080.02 125.03 1087.76 126.84 1090.14 132.78 C 1092.55 139.03 1087.82 145.66 1082.12 148.04 C 1072.32 152.11 1061.94 154.58 1051.58 156.77 C 1030.49 188.99 1015.71 225.05 1005.43 262.07 C 1021.04 242.30 1037.96 223.55 1056.33 206.32 C 1066.77 196.63 1077.72 187.45 1089.57 179.52 C 1100.68 172.14 1112.75 165.75 1125.88 162.90 C 1137.53 160.35 1150.40 161.64 1160.41 168.50 C 1167.84 173.75 1174.60 180.97 1176.64 190.09 C 1179.27 201.63 1176.95 213.63 1173.36 224.70 C 1167.16 242.98 1156.82 259.70 1144.20 274.23 C 1122.34 298.72 1096.87 320.20 1068.03 336.01 C 1078.07 340.08 1086.90 347.40 1092.04 357.02 C 1099.87 371.17 1099.44 389.03 1092.43 403.42 C 1088.91 411.05 1083.49 417.61 1077.73 423.66 C 1065.11 436.42 1048.74 445.49 1031.11 449.02 C 1009.07 453.54 985.98 449.79 965.36 441.30 C 967.14 438.27 969.56 435.31 973.05 434.25 C 976.76 433.03 980.74 434.15 984.12 435.84 C 995.23 441.46 1008.00 444.98 1020.48 442.80 C 1033.59 440.61 1045.08 432.46 1053.31 422.26 C 1064.31 408.62 1068.86 390.41 1067.18 373.11 C 1066.39 366.11 1064.87 358.91 1060.87 352.99 C 1058.03 349.16 1053.61 346.96 1049.37 345.06 C 1036.90 349.71 1023.49 352.81 1010.12 351.47 C 1006.21 350.87 1000.99 349.58 1000.03 345.09 C 999.23 339.33 1004.65 335.35 1009.39 333.49 C 1022.42 328.41 1036.88 329.34 1050.42 331.55 C 1069.55 320.31 1085.64 304.77 1100.62 288.58 C 1113.95 273.78 1126.37 257.77 1134.41 239.43 C 1139.05 228.93 1143.23 218.14 1145.44 206.84 C 1146.74 199.61 1147.45 191.68 1144.05 184.89 C 1140.75 178.93 1133.61 176.08 1127.02 176.47 C 1116.73 176.86 1107.18 181.42 1098.29 186.23 C 1078.71 196.78 1063.21 213.10 1047.97 228.95 C 1030.41 247.85 1013.85 267.68 998.56 288.46 C 997.41 290.06 996.09 291.60 995.40 293.47 C 985.37 322.51 974.66 351.34 962.46 379.54 C 956.73 392.49 950.85 405.44 943.47 417.56 C 935.68 429.90 926.37 441.63 914.26 450.00 C 901.51 459.07 885.60 463.35 870.03 462.74 C 859.05 460.66 848.66 455.93 839.40 449.73 C 830.55 459.25 821.13 468.28 811.05 476.50 C 809.53 474.97 807.68 473.40 807.54 471.08 C 806.97 467.16 810.00 464.03 812.78 461.75 C 819.70 456.44 825.80 450.16 831.53 443.60 C 819.08 432.84 810.27 418.32 805.08 402.80 C 797.06 378.78 793.89 353.20 795.25 327.93 C 796.24 312.21 799.12 296.33 806.09 282.08 C 811.03 272.33 818.35 263.28 828.41 258.53 C 836.14 254.78 845.59 254.75 853.26 258.71 C 864.21 264.11 871.59 274.64 876.44 285.54 C 881.80 297.59 884.22 310.77 884.89 323.89 C 886.22 345.05 884.58 366.62 877.87 386.83 C 871.22 407.54 859.51 426.28 845.59 442.86 C 854.81 450.06 866.16 456.33 878.25 454.95 C 889.83 453.93 900.41 447.71 908.41 439.50 C 918.44 429.70 925.62 417.41 931.62 404.85 C 940.17 386.65 946.06 367.34 950.97 347.88 C 962.74 303.57 975.95 259.45 994.43 217.42 C 1000.80 203.25 1007.78 189.26 1016.68 176.49 C 1021.03 170.23 1026.04 164.37 1032.07 159.66 C 1014.78 157.46 997.38 155.65 979.93 156.02 C 962.96 156.38 946.26 161.83 931.91 170.79 C 939.63 182.82 943.60 197.53 941.34 211.78 C 939.03 227.06 935.52 242.73 926.78 255.75 C 921.77 263.27 913.36 269.48 903.91 268.49 C 896.01 268.31 889.57 262.28 886.79 255.24 C 882.06 243.50 882.34 230.37 884.52 218.10 C 887.92 199.43 899.17 182.92 913.71 171.04 C 908.80 163.13 901.31 156.35 892.04 154.25 C 885.41 152.46 878.48 153.39 871.96 155.11 C 869.07 156.04 867.11 152.95 866.84 150.49 C 877.78 146.62 889.70 144.59 901.23 146.75 C 910.96 148.82 918.99 155.40 925.61 162.53 C 939.88 153.87 955.56 147.19 972.15 144.63 C 998.09 140.45 1024.70 142.17 1050.44 146.98 C 1057.42 139.39 1064.86 131.61 1074.53 127.52 M 892.89 234.73 C 893.03 243.99 894.91 254.49 902.31 260.82 C 905.13 263.29 909.09 261.96 911.58 259.70 C 917.95 254.11 921.33 245.94 923.45 237.91 C 928.04 219.07 925.34 199.00 918.64 181.00 C 904.10 195.00 893.04 214.12 892.89 234.73 M 816.34 282.46 C 811.02 292.04 808.90 303.00 807.54 313.77 C 805.08 335.32 806.28 357.24 810.32 378.53 C 814.32 399.54 823.32 419.98 837.99 435.74 C 849.78 420.41 859.58 403.16 864.19 384.26 C 868.39 365.50 867.45 345.96 864.59 327.07 C 862.02 312.18 858.27 297.04 849.98 284.20 C 845.76 277.78 839.12 271.70 830.96 271.97 C 824.44 272.05 819.37 277.13 816.34 282.46 M 1011.88 339.81 C 1009.11 341.10 1010.05 345.37 1013.11 345.46 C 1020.51 346.26 1027.60 342.90 1034.32 340.22 C 1027.02 338.92 1019.02 336.82 1011.88 339.81 Z" />
<path fill="#000000" opacity="1.00" d=" M 647.39 242.67 C 651.37 240.97 657.25 241.27 659.25 245.74 C 661.08 250.19 659.49 255.26 657.22 259.25 C 654.02 264.56 649.00 269.13 642.89 270.67 C 639.58 271.53 635.31 270.82 633.53 267.59 C 631.68 263.96 632.37 259.58 633.94 255.98 C 636.57 250.10 641.39 245.13 647.39 242.67 Z" />
<path fill="#000000" opacity="1.00" d=" M 696.60 263.66 C 701.73 259.31 707.95 255.75 714.78 255.27 C 720.05 255.02 726.15 257.65 727.66 263.12 C 729.44 269.63 727.08 276.42 724.17 282.23 C 720.22 290.46 713.86 297.12 707.60 303.62 C 708.66 308.21 710.61 312.60 713.85 316.08 C 717.14 319.45 718.27 324.47 717.09 328.99 C 713.09 345.70 698.07 356.89 693.06 373.13 C 691.93 377.05 692.95 381.44 695.47 384.62 C 697.15 386.62 700.16 386.16 702.46 385.96 C 702.66 385.91 703.04 385.81 703.23 385.77 C 712.07 383.75 720.15 379.47 728.03 375.13 C 742.90 366.51 756.88 356.19 768.85 343.81 C 770.09 344.88 771.32 345.96 772.58 347.04 C 758.91 360.78 743.83 373.25 727.15 383.16 C 714.77 390.28 700.57 396.44 685.97 394.05 C 678.64 393.13 671.15 388.46 669.34 380.92 C 666.72 370.06 671.59 357.94 680.47 351.31 C 688.60 344.52 697.28 338.29 704.53 330.52 C 705.66 328.99 707.60 327.23 706.81 325.14 C 703.74 321.21 699.86 318.02 696.60 314.28 C 681.56 328.72 665.78 342.43 649.36 355.28 C 636.17 365.78 621.65 374.62 606.12 381.19 C 599.12 384.02 591.71 386.43 584.08 386.22 C 578.48 386.09 572.52 382.93 570.80 377.32 C 568.25 369.69 571.11 361.62 574.34 354.66 C 564.54 361.37 554.35 367.56 543.62 372.67 C 535.17 376.49 525.84 380.74 516.38 378.37 C 507.44 375.80 502.11 367.33 498.50 359.34 C 497.41 357.07 496.13 353.67 493.03 354.03 C 488.82 355.29 485.81 358.81 482.86 361.87 C 473.43 372.75 463.14 383.74 449.57 389.34 C 442.85 391.94 435.03 393.32 428.12 390.65 C 422.33 388.37 419.61 381.86 419.74 375.98 C 420.04 366.37 424.42 357.47 429.47 349.50 C 439.39 334.16 452.62 321.04 467.67 310.73 C 477.68 304.01 488.58 298.21 500.43 295.59 C 505.74 294.55 511.59 293.97 516.64 296.33 C 522.90 299.55 526.01 307.54 523.43 314.14 C 521.80 317.98 520.20 322.22 516.96 325.00 C 513.34 325.37 511.91 321.24 510.43 318.71 C 513.27 315.30 516.76 311.13 515.52 306.36 C 514.20 302.70 509.48 302.34 506.24 303.19 C 496.59 305.56 488.54 311.85 481.07 318.12 C 468.39 329.47 456.48 341.94 447.25 356.30 C 443.78 362.28 440.01 368.85 440.82 376.03 C 440.99 377.97 442.23 379.53 443.42 380.99 C 448.69 379.78 453.01 376.31 457.36 373.29 C 470.99 363.12 483.59 351.65 495.92 339.95 C 498.35 337.72 500.40 335.13 502.66 332.73 C 504.66 330.53 508.09 329.75 510.78 331.15 C 513.57 332.67 515.54 335.40 516.58 338.37 C 519.82 347.16 522.30 356.49 527.91 364.15 C 529.94 366.99 533.44 369.46 537.05 368.07 C 546.50 365.55 554.99 360.38 563.15 355.15 C 570.11 350.29 577.79 345.67 582.24 338.19 C 589.16 328.22 596.34 318.41 604.18 309.13 C 608.05 304.71 611.89 300.13 616.75 296.74 C 619.68 294.57 623.50 294.53 627.00 294.49 C 630.08 294.59 633.79 295.10 635.48 298.07 C 635.84 300.14 635.06 302.16 633.79 303.77 C 623.08 317.26 612.69 331.04 603.49 345.61 C 599.12 352.74 594.74 360.00 592.14 368.01 C 591.36 370.84 590.44 374.22 592.11 376.90 C 593.59 379.15 596.70 378.56 598.98 378.26 C 605.99 376.63 612.33 373.02 618.58 369.57 C 632.92 361.26 646.36 351.52 659.45 341.39 C 671.48 331.98 683.12 322.06 693.98 311.31 C 688.34 304.33 682.48 296.19 683.02 286.76 C 683.99 277.55 689.84 269.63 696.60 263.66 M 706.49 274.43 C 703.60 281.79 705.32 289.79 706.35 297.35 C 711.53 290.88 716.41 283.99 719.37 276.19 C 720.62 272.68 721.66 268.39 719.11 265.19 C 713.28 264.68 708.35 269.23 706.49 274.43 Z" />
<path fill="#000000" opacity="1.00" d=" M 1341.84 255.95 C 1345.20 254.96 1349.32 254.18 1352.23 256.72 C 1357.04 260.57 1356.65 267.54 1355.82 273.03 C 1354.12 285.70 1344.47 295.02 1336.03 303.77 C 1338.40 310.56 1344.74 315.14 1346.65 322.12 C 1347.83 326.25 1346.08 330.47 1343.75 333.84 C 1336.51 344.57 1327.53 354.20 1321.87 365.95 C 1319.76 370.41 1317.88 375.96 1320.32 380.66 C 1321.82 383.80 1325.32 385.10 1328.50 385.83 C 1330.61 386.07 1332.77 386.09 1334.89 385.73 C 1342.75 384.52 1350.13 381.12 1356.58 376.53 C 1370.75 366.78 1383.43 355.08 1396.01 343.42 C 1397.88 343.79 1399.79 344.14 1401.69 344.54 C 1390.30 357.22 1377.41 368.57 1363.38 378.26 C 1353.67 384.74 1343.41 390.90 1331.90 393.44 C 1323.70 395.21 1314.61 395.12 1307.19 390.80 C 1301.53 387.62 1297.51 381.54 1297.21 375.01 C 1296.67 369.07 1299.88 363.69 1303.10 358.98 C 1310.04 349.43 1318.97 341.59 1327.90 333.98 C 1330.06 331.75 1333.54 330.30 1334.33 327.09 C 1333.15 321.89 1328.65 318.45 1325.15 314.78 C 1309.71 329.22 1293.62 343.01 1276.59 355.56 C 1263.89 364.71 1250.84 374.75 1235.08 377.70 C 1227.91 378.73 1219.87 379.72 1213.41 375.67 C 1205.02 370.52 1199.77 361.71 1195.95 352.88 C 1184.43 365.47 1171.48 377.08 1156.43 385.29 C 1149.61 388.78 1141.92 392.14 1134.10 390.60 C 1128.40 389.37 1124.71 383.77 1124.24 378.20 C 1123.39 369.12 1127.48 360.54 1131.88 352.86 C 1140.76 338.24 1152.92 325.86 1166.25 315.25 C 1175.40 308.06 1185.30 301.67 1196.18 297.43 C 1203.37 294.81 1211.38 292.68 1218.96 294.95 C 1222.99 296.12 1226.76 299.52 1226.53 304.04 C 1226.34 311.93 1221.19 318.54 1216.52 324.48 C 1215.26 323.28 1213.77 322.00 1213.68 320.13 C 1213.59 315.85 1218.54 313.22 1217.87 308.84 C 1217.47 306.76 1217.09 304.08 1214.84 303.23 C 1210.93 302.10 1206.95 303.82 1203.36 305.23 C 1193.63 309.59 1185.38 316.52 1177.69 323.78 C 1168.29 332.76 1159.42 342.38 1151.89 353.00 C 1148.30 358.23 1144.87 363.74 1143.21 369.92 C 1142.23 373.65 1142.33 378.76 1146.12 380.90 C 1149.90 382.50 1153.80 379.90 1156.95 377.97 C 1170.57 368.46 1181.16 355.47 1192.94 343.92 C 1197.50 339.51 1201.72 334.51 1207.36 331.43 C 1210.40 329.94 1213.57 332.20 1215.48 334.48 C 1222.66 343.12 1226.00 354.21 1232.96 363.01 C 1234.83 365.42 1237.74 367.79 1241.01 366.72 C 1248.98 364.75 1256.00 360.23 1262.95 356.02 C 1283.48 342.77 1302.57 327.29 1320.34 310.54 C 1314.36 305.13 1310.95 297.07 1311.64 289.00 C 1312.07 281.21 1315.86 273.86 1321.39 268.44 C 1327.00 262.65 1334.12 258.29 1341.84 255.95 M 1337.78 269.74 C 1334.28 278.16 1331.85 287.48 1333.73 296.61 C 1339.51 289.78 1345.26 282.47 1347.83 273.77 C 1348.74 270.69 1348.63 266.13 1344.97 264.96 C 1341.57 263.20 1338.95 267.04 1337.78 269.74 Z" />
<path fill="#000000" opacity="1.00" d=" M 96.00 505.75 C 533.42 505.75 970.83 505.75 1408.25 505.75 C 1408.25 526.50 1408.25 547.25 1408.25 568.00 C 970.83 568.00 533.42 568.00 96.00 568.00 C 96.00 547.25 96.00 526.50 96.00 505.75 M 538.76 522.53 C 537.48 526.20 537.45 530.81 540.10 533.92 C 545.43 539.79 555.52 537.46 560.15 544.23 C 563.15 548.88 559.13 555.02 554.13 555.90 C 548.31 557.74 541.70 553.38 541.58 547.17 C 539.86 547.19 538.16 547.20 536.46 547.23 C 536.68 550.68 537.70 554.32 540.42 556.65 C 547.24 562.70 559.68 561.92 564.65 553.88 C 568.33 548.20 565.97 539.75 559.80 536.92 C 554.95 534.06 548.40 534.69 544.31 530.51 C 541.10 526.64 544.51 520.85 548.97 519.94 C 554.22 518.16 559.69 522.36 560.30 527.65 C 561.89 527.60 563.49 527.58 565.09 527.57 C 565.09 524.67 564.26 521.79 562.32 519.60 C 556.07 512.87 542.82 513.92 538.76 522.53 M 825.57 515.71 C 816.46 517.31 807.90 523.90 805.60 533.10 C 804.90 537.43 804.78 542.13 806.77 546.17 C 810.13 553.48 817.40 558.61 825.25 560.04 C 836.43 562.44 849.57 557.28 854.56 546.63 C 858.06 539.72 856.81 531.00 852.01 525.04 C 845.85 517.29 835.17 513.94 825.57 515.71 M 641.09 516.03 C 634.14 530.61 627.30 545.25 620.25 559.78 C 622.09 559.78 623.93 559.79 625.79 559.82 C 628.25 555.06 630.48 550.19 632.87 545.40 C 640.28 545.39 647.69 545.38 655.10 545.40 C 657.31 550.22 659.70 554.95 661.85 559.79 C 663.81 559.78 665.78 559.79 667.75 559.79 C 660.85 545.18 653.76 530.66 646.92 516.03 C 644.97 516.00 643.03 516.00 641.09 516.03 M 725.41 516.01 C 725.40 530.60 725.43 545.20 725.39 559.80 C 733.79 559.78 742.19 559.79 750.60 559.80 C 750.58 558.32 750.59 556.85 750.60 555.39 C 743.92 555.45 737.25 555.38 730.57 555.43 C 730.61 542.29 730.57 529.15 730.59 516.01 C 728.85 516.00 727.13 516.00 725.41 516.01 M 916.00 515.99 C 916.00 530.59 915.99 545.19 916.00 559.79 C 917.65 559.78 919.32 559.78 921.00 559.79 C 921.03 547.12 920.95 534.46 921.04 521.79 C 930.43 534.52 940.00 547.11 949.47 559.79 C 951.23 559.78 953.01 559.78 954.79 559.80 C 954.79 545.20 954.79 530.60 954.79 516.01 C 952.99 516.00 951.19 515.99 949.41 516.00 C 949.43 527.92 949.37 539.84 949.45 551.76 C 940.71 539.79 931.63 528.06 922.94 516.06 C 920.62 516.00 918.30 515.99 916.00 515.99 Z" />
<path fill="#000000" opacity="1.00" d=" M 824.39 520.58 C 835.45 516.75 849.59 523.98 851.19 536.00 C 852.58 546.85 842.28 555.84 832.03 556.23 C 824.16 556.66 815.95 552.62 812.23 545.53 C 810.11 541.82 809.87 537.23 811.05 533.18 C 813.02 527.06 818.31 522.42 824.39 520.58 Z" />
<path fill="#000000" opacity="1.00" d=" M 634.84 540.97 C 637.94 534.52 641.12 528.11 644.00 521.56 C 646.81 528.10 650.01 534.46 652.91 540.96 C 646.89 541.03 640.86 541.01 634.84 540.97 Z" />
</g>
<g id="#d1d2d4ff">
<path fill="#d1d2d4" opacity="1.00" d=" M 547.53 133.81 C 550.27 134.26 552.99 134.84 555.69 135.49 C 555.79 140.76 556.46 146.58 553.11 151.09 C 549.71 156.37 542.99 158.03 537.06 157.36 C 528.52 156.57 518.84 158.13 513.13 165.15 C 503.05 177.31 494.41 190.57 485.84 203.82 C 473.64 223.05 462.34 242.88 452.35 263.35 C 435.56 298.96 421.01 335.66 409.30 373.26 C 408.91 374.87 408.00 376.59 408.68 378.26 C 414.20 393.53 418.94 409.59 417.86 426.01 C 417.31 435.38 414.40 444.95 407.92 451.94 C 402.28 457.88 394.33 462.32 385.93 461.77 C 378.47 461.48 371.88 456.65 368.09 450.41 C 372.97 452.75 378.48 454.17 383.87 452.84 C 396.39 449.83 405.84 438.58 408.22 426.13 C 412.32 406.73 406.37 387.11 399.88 368.95 C 403.80 353.88 409.30 339.24 414.58 324.59 C 427.78 289.71 442.21 255.14 460.90 222.81 C 471.56 204.18 482.97 185.95 495.54 168.55 C 499.22 163.62 502.68 158.44 507.20 154.24 C 513.33 148.74 522.13 148.39 529.93 148.95 C 535.00 149.40 540.52 147.85 543.80 143.75 C 546.30 141.04 547.00 137.33 547.53 133.81 Z" />
<path fill="#d1d2d4" opacity="1.00" d=" M 1097.47 135.36 C 1100.31 137.09 1103.09 139.15 1104.79 142.10 C 1109.34 149.41 1107.55 159.59 1101.45 165.48 C 1096.55 170.70 1089.45 172.67 1082.88 174.81 C 1077.37 176.61 1071.70 177.79 1066.11 179.26 C 1064.55 179.50 1063.93 181.07 1063.13 182.19 C 1058.31 190.15 1053.71 198.24 1049.60 206.59 C 1048.59 208.76 1047.37 210.88 1045.52 212.45 C 1038.88 218.62 1032.86 225.39 1026.39 231.73 C 1034.27 210.60 1044.40 190.28 1056.34 171.15 C 1066.15 168.72 1076.08 166.44 1085.39 162.41 C 1092.10 159.45 1097.51 153.27 1098.74 145.94 C 1099.44 142.36 1098.29 138.81 1097.47 135.36 Z" />
<path fill="#d1d2d4" opacity="1.00" d=" M 400.12 155.59 C 404.18 157.91 407.73 161.37 409.19 165.92 C 412.26 174.63 407.88 184.35 401.04 189.96 C 392.20 197.17 380.97 200.60 369.96 202.82 C 368.70 203.14 367.24 203.31 366.50 204.53 C 362.20 209.85 358.79 215.83 355.75 221.94 C 344.49 244.78 337.64 269.42 329.10 293.31 C 325.93 291.87 322.73 290.46 319.55 289.04 C 325.26 271.68 330.73 254.23 337.21 237.13 C 342.41 223.68 347.86 210.12 356.30 198.32 C 357.49 196.90 358.51 194.91 360.53 194.59 C 370.97 192.52 381.54 189.51 390.32 183.28 C 396.11 179.20 400.70 173.00 401.58 165.85 C 402.15 162.34 400.93 158.94 400.12 155.59 Z" />
<path fill="#d1d2d4" opacity="1.00" d=" M 867.39 170.15 C 873.05 171.25 878.36 168.19 884.01 168.46 C 891.30 168.15 898.33 171.64 903.01 177.15 C 902.53 177.43 901.58 178.01 901.11 178.30 C 897.41 177.57 893.70 176.57 889.90 177.03 C 885.13 177.17 880.44 180.06 875.68 178.29 C 871.71 177.18 869.06 173.73 867.39 170.15 Z" />
<path fill="#d1d2d4" opacity="1.00" d=" M 943.02 180.63 C 953.96 175.44 965.78 171.62 977.97 171.28 C 990.11 170.85 1002.28 171.55 1014.36 172.83 C 1012.70 175.31 1010.93 177.71 1009.08 180.05 C 998.36 179.62 987.54 178.90 976.90 180.67 C 968.18 182.17 959.74 185.08 951.81 188.98 C 953.62 194.30 956.09 199.42 957.10 204.99 C 960.37 218.98 957.48 233.39 954.16 247.07 C 950.45 260.91 944.89 275.14 933.76 284.72 C 925.49 292.03 913.09 294.26 902.84 290.10 C 897.69 288.05 893.39 284.21 890.43 279.55 C 896.69 282.79 903.87 284.81 910.92 283.21 C 923.16 281.08 932.13 271.03 937.54 260.45 C 944.26 247.55 947.52 233.18 949.55 218.87 C 951.40 205.78 948.57 192.51 943.02 180.63 Z" />
<path fill="#d1d2d4" opacity="1.00" d=" M 217.46 180.43 C 224.56 176.91 232.81 178.30 240.29 179.67 C 265.47 184.74 289.79 193.55 315.20 197.63 C 313.97 199.80 312.51 201.82 310.88 203.71 C 290.53 199.37 270.70 192.87 250.35 188.53 C 242.59 187.06 234.12 185.23 226.57 188.53 C 219.59 191.77 217.39 200.08 216.65 207.09 C 214.27 226.34 221.53 245.28 231.45 261.42 C 226.30 258.71 223.27 253.48 220.25 248.73 C 211.19 233.04 205.58 214.53 208.50 196.32 C 209.46 190.25 211.67 183.51 217.46 180.43 Z" />
<path fill="#d1d2d4" opacity="1.00" d=" M 1178.10 180.79 C 1187.32 187.64 1193.38 198.54 1194.16 210.03 C 1195.61 226.50 1190.39 242.79 1183.46 257.54 C 1176.12 272.94 1166.21 287.07 1154.59 299.54 C 1136.28 319.17 1115.86 337.01 1092.93 351.07 C 1090.14 348.25 1087.31 345.46 1084.33 342.84 C 1110.92 326.08 1134.83 305.06 1154.96 280.93 C 1167.41 265.19 1177.60 247.37 1182.99 227.95 C 1186.04 216.39 1187.51 203.87 1183.73 192.30 C 1182.52 188.16 1180.12 184.55 1178.10 180.79 Z" />
<path fill="#d1d2d4" opacity="1.00" d=" M 1115.11 194.26 C 1121.07 192.22 1127.95 190.01 1134.02 192.92 C 1136.85 194.15 1137.47 197.39 1138.21 200.06 C 1128.83 199.59 1120.13 203.81 1112.01 208.00 C 1099.84 214.21 1089.32 223.08 1079.46 232.43 C 1057.19 253.98 1037.08 277.66 1018.27 302.25 C 1015.52 306.18 1011.95 309.70 1010.48 314.38 C 1008.46 320.37 1006.36 326.35 1004.23 332.32 C 1003.68 334.56 1001.40 335.47 999.75 336.77 C 995.38 339.76 992.20 344.63 991.81 349.98 C 991.47 353.20 992.93 356.20 994.14 359.09 C 986.02 380.76 977.12 402.19 966.78 422.90 C 960.77 434.70 953.74 446.06 944.95 456.00 C 934.52 468.13 921.03 477.96 905.63 482.67 C 896.84 485.38 887.57 486.67 878.38 486.43 C 868.00 484.96 858.21 480.78 849.06 475.81 C 839.81 484.98 830.24 493.84 820.05 501.96 C 815.63 499.46 811.20 496.62 808.66 492.05 C 809.80 492.38 810.95 492.71 812.11 493.05 C 822.27 485.09 831.64 476.20 840.85 467.17 C 848.45 471.40 856.49 474.93 864.96 476.98 C 871.52 478.82 878.40 477.85 885.04 477.01 C 902.33 474.61 918.44 465.99 930.72 453.69 C 948.87 436.02 959.75 412.69 969.84 389.85 C 982.14 361.69 992.71 332.80 1002.88 303.82 C 1007.75 295.68 1014.10 288.49 1019.85 280.94 C 1037.19 259.44 1055.29 238.41 1075.67 219.71 C 1087.16 208.99 1100.38 199.91 1115.11 194.26 Z" />
<path fill="#d1d2d4" opacity="1.00" d=" M 901.43 235.65 C 902.90 224.18 908.02 213.40 915.01 204.27 C 916.29 209.41 917.00 214.68 917.38 219.95 C 917.70 222.05 916.34 223.82 915.53 225.63 C 910.68 235.18 908.54 246.13 909.90 256.79 C 908.75 258.24 907.45 259.56 906.10 260.80 C 901.32 253.42 900.36 244.20 901.43 235.65 Z" />
<path fill="#d1d2d4" opacity="1.00" d=" M 261.21 240.09 C 264.15 240.29 267.10 240.56 270.03 240.92 C 269.69 253.21 268.22 265.76 263.07 277.05 C 262.11 279.00 261.24 281.07 259.71 282.64 C 255.62 284.26 251.34 285.41 247.42 287.43 C 243.77 289.03 240.59 291.49 237.00 293.18 C 226.89 292.61 217.38 287.75 209.69 281.36 C 206.93 279.09 204.22 276.72 202.24 273.72 C 211.26 280.10 221.70 285.41 233.05 285.05 C 240.86 285.28 247.86 280.29 251.81 273.82 C 258.11 263.77 260.29 251.75 261.21 240.09 Z" />
<path fill="#d1d2d4" opacity="1.00" d=" M 666.99 249.60 C 671.00 251.58 674.56 254.89 675.79 259.31 C 678.25 267.26 675.22 275.86 670.29 282.21 C 664.67 289.46 655.92 295.29 646.42 294.47 C 640.69 294.17 635.83 290.22 633.48 285.14 C 639.12 286.54 645.23 286.33 650.40 283.46 C 659.09 278.99 665.78 270.56 667.80 260.96 C 668.75 257.17 667.70 253.33 666.99 249.60 Z" />
<path fill="#d1d2d4" opacity="1.00" d=" M 179.77 254.00 C 196.20 267.70 204.58 288.54 208.92 308.98 C 215.51 342.76 214.20 378.60 201.97 410.98 C 197.16 423.48 191.24 435.68 183.61 446.70 C 179.39 447.65 175.05 445.88 170.99 444.78 C 189.87 418.23 201.96 386.67 203.96 354.05 C 205.25 327.80 203.09 300.74 192.84 276.29 C 189.57 268.26 184.78 261.02 179.77 254.00 Z" />
<path fill="#d1d2d4" opacity="1.00" d=" M 125.45 270.41 C 128.35 266.54 133.00 263.67 137.98 264.18 C 144.30 263.88 149.03 268.97 152.39 273.69 C 149.33 273.07 146.17 272.00 143.02 272.77 C 138.00 273.69 134.32 277.75 131.80 281.94 C 127.12 289.92 125.00 299.09 123.36 308.11 C 121.04 322.24 120.11 336.60 120.61 350.91 C 121.81 375.10 129.10 399.13 142.50 419.39 C 144.64 422.73 147.27 425.75 149.21 429.24 C 146.13 427.21 143.80 424.35 141.48 421.54 C 121.24 396.92 111.41 364.66 111.99 332.98 C 112.28 319.10 113.46 305.17 116.56 291.61 C 118.38 284.16 120.81 276.63 125.45 270.41 Z" />
<path fill="#d1d2d4" opacity="1.00" d=" M 1362.50 263.32 C 1368.49 266.16 1372.15 272.44 1372.77 278.90 C 1373.55 286.18 1371.86 293.53 1369.28 300.31 C 1365.97 308.10 1359.85 314.14 1354.62 320.63 C 1358.94 326.30 1363.72 332.56 1363.57 340.06 C 1363.76 345.31 1361.39 350.22 1358.48 354.44 C 1352.36 363.28 1345.22 371.42 1339.83 380.75 C 1338.69 382.85 1336.84 384.42 1334.89 385.73 C 1332.77 386.09 1330.61 386.07 1328.50 385.83 C 1326.09 382.34 1328.24 378.28 1329.86 374.95 C 1335.74 363.86 1344.42 354.61 1351.24 344.13 C 1354.46 339.26 1356.18 333.12 1354.60 327.36 C 1353.21 321.58 1349.22 317.02 1346.01 312.19 C 1351.24 306.29 1356.65 300.36 1360.23 293.26 C 1364.35 283.94 1366.04 273.11 1362.50 263.32 Z" />
<path fill="#d1d2d4" opacity="1.00" d=" M 734.14 264.32 C 741.38 267.96 745.65 276.07 744.84 284.10 C 743.86 298.56 734.95 310.99 725.23 321.13 C 728.07 326.10 732.93 330.06 733.72 336.03 C 735.51 346.98 729.86 357.23 724.12 366.10 C 721.10 370.43 718.12 374.79 715.11 379.12 C 712.25 382.11 707.78 382.47 704.18 384.19 C 703.94 384.59 703.47 385.37 703.23 385.77 C 703.04 385.81 702.66 385.91 702.46 385.96 C 702.01 385.44 701.10 384.40 700.64 383.87 C 701.65 377.78 705.44 372.73 708.70 367.67 C 714.68 359.05 721.26 350.52 724.34 340.34 C 725.74 335.75 726.24 330.76 724.78 326.13 C 723.42 320.99 719.17 317.47 716.64 312.97 C 725.81 303.16 734.43 291.67 736.22 277.98 C 737.02 273.32 735.87 268.64 734.14 264.32 Z" />
<path fill="#d1d2d4" opacity="1.00" d=" M 874.20 272.44 C 884.31 280.39 890.67 292.22 895.00 304.13 C 901.56 322.62 902.43 342.58 901.70 362.01 C 900.43 394.73 888.36 426.70 868.54 452.65 C 864.56 452.72 860.84 450.03 857.34 448.23 C 866.30 436.41 874.31 423.80 880.21 410.15 C 888.61 391.23 892.89 370.60 893.45 349.93 C 893.82 328.68 892.20 306.66 882.87 287.22 C 880.56 281.96 877.10 277.36 874.20 272.44 Z" />
<path fill="#d1d2d4" opacity="1.00" d=" M 822.71 294.68 C 824.50 291.28 827.01 287.59 831.07 286.86 C 836.71 287.21 840.66 291.89 843.62 296.22 C 841.52 296.01 839.23 294.91 837.23 296.09 C 833.86 297.81 832.06 301.37 830.43 304.60 C 826.75 312.58 825.17 321.34 824.08 330.00 C 821.83 350.65 822.77 371.66 826.72 392.05 C 829.02 404.27 833.18 416.14 839.22 427.02 C 838.60 427.84 838.00 428.67 837.42 429.50 C 828.10 416.65 821.86 401.67 818.70 386.13 C 814.34 365.22 813.40 343.61 815.53 322.37 C 816.72 312.91 818.34 303.26 822.71 294.68 Z" />
<path fill="#d1d2d4" opacity="1.00" d=" M 643.40 302.66 C 646.40 304.10 649.47 305.92 650.91 309.08 C 653.56 314.10 651.89 320.30 648.38 324.46 C 637.25 338.24 626.78 352.56 617.36 367.55 C 612.23 371.60 606.05 374.34 599.95 376.67 C 605.57 362.64 614.56 350.31 623.14 337.98 C 628.64 330.29 634.48 322.84 640.39 315.46 C 643.30 311.88 644.24 307.13 643.40 302.66 Z" />
<path fill="#d1d2d4" opacity="1.00" d=" M 1233.11 303.39 C 1238.94 306.39 1243.25 312.36 1243.17 319.07 C 1243.02 329.02 1237.23 337.75 1231.10 345.16 C 1235.44 351.44 1239.13 358.13 1242.56 364.94 C 1241.58 365.19 1240.61 365.43 1239.66 365.68 C 1233.11 356.63 1229.18 346.00 1222.47 337.06 C 1228.05 330.15 1233.41 322.46 1234.59 313.44 C 1235.17 310.00 1233.98 306.66 1233.11 303.39 Z" />
<path fill="#d1d2d4" opacity="1.00" d=" M 529.55 304.44 C 535.34 308.01 539.78 314.05 540.69 320.87 C 541.72 330.32 537.29 339.63 531.02 346.48 C 533.38 353.19 536.32 359.73 538.11 366.62 C 537.33 366.77 535.76 367.08 534.98 367.24 C 528.65 358.68 526.78 347.91 522.35 338.41 C 527.70 332.48 531.71 325.00 532.39 316.95 C 532.83 312.57 531.09 308.43 529.55 304.44 Z" />
<path fill="#d1d2d4" opacity="1.00" d=" M 260.69 308.68 C 263.55 307.40 266.69 307.07 269.78 306.88 C 267.83 311.99 267.35 318.14 262.82 321.79 C 258.20 327.17 251.35 331.48 244.00 330.33 C 238.45 329.75 234.13 325.61 231.64 320.87 C 236.36 322.32 241.58 322.49 246.03 320.07 C 251.94 317.61 254.70 310.97 260.69 308.68 Z" />
<path fill="#d1d2d4" opacity="1.00" d=" M 310.19 316.54 C 326.47 323.77 341.29 334.46 353.40 347.51 C 349.39 345.00 346.04 341.63 342.17 338.93 C 334.77 333.62 326.94 328.80 318.57 325.18 C 308.81 352.93 297.94 380.35 284.64 406.61 C 276.73 421.59 268.75 436.78 257.72 449.76 C 244.52 465.14 226.49 476.85 206.36 480.46 C 191.10 483.33 175.09 481.28 160.85 475.16 C 153.42 482.16 145.68 489.14 136.13 493.12 C 129.76 495.97 122.87 497.64 115.92 498.16 C 109.10 498.73 102.41 496.97 95.75 495.84 C 97.25 493.60 97.60 488.77 101.24 489.61 C 120.79 491.03 139.32 480.76 152.17 466.63 C 160.50 469.70 169.04 472.45 177.97 473.02 C 201.29 475.06 224.67 465.44 241.43 449.43 C 256.63 435.42 266.30 416.81 275.87 398.78 C 289.39 372.29 300.34 344.57 310.19 316.54 Z" />
<path fill="#d1d2d4" opacity="1.00" d=" M 494.67 324.71 C 497.92 322.42 501.39 320.45 505.11 319.03 C 503.73 320.68 502.35 322.32 500.92 323.92 C 501.75 325.86 502.52 327.82 503.23 329.81 C 496.76 332.48 493.33 338.88 488.21 343.26 C 476.05 354.61 463.71 365.92 450.06 375.47 C 453.49 367.08 459.18 359.87 464.94 352.98 C 473.90 342.64 483.45 332.62 494.67 324.71 Z" />
<path fill="#d1d2d4" opacity="1.00" d=" M 1196.47 325.50 C 1199.93 323.02 1203.67 320.93 1207.56 319.18 C 1206.20 322.75 1205.44 326.52 1205.58 330.35 C 1196.74 334.35 1190.55 342.08 1183.73 348.69 C 1173.14 359.31 1163.36 371.09 1150.76 379.42 C 1152.62 372.52 1157.05 366.74 1161.12 361.00 C 1171.27 347.71 1182.84 335.30 1196.47 325.50 Z" />
<path fill="#d1d2d4" opacity="1.00" d=" M 686.52 342.36 C 689.59 338.56 693.17 334.97 697.42 332.51 C 694.78 336.69 690.68 339.80 686.52 342.36 Z" />
<path fill="#d1d2d4" opacity="1.00" d=" M 1254.40 386.56 C 1272.82 376.86 1288.77 363.25 1305.18 350.62 C 1298.28 358.66 1291.12 367.11 1288.91 377.79 C 1284.92 381.57 1280.04 384.30 1275.57 387.47 C 1265.95 393.80 1255.53 399.46 1244.03 401.29 C 1236.63 402.40 1228.77 403.13 1221.68 400.24 C 1215.50 397.71 1210.22 393.25 1206.22 387.96 C 1210.78 390.39 1215.41 393.05 1220.67 393.56 C 1232.29 394.53 1244.05 391.84 1254.40 386.56 Z" />
<path fill="#d1d2d4" opacity="1.00" d=" M 1410.16 354.16 C 1410.97 353.27 1411.83 352.41 1412.71 351.55 C 1417.11 352.45 1421.55 353.16 1425.96 354.07 C 1413.19 369.52 1398.95 383.85 1382.79 395.77 C 1372.54 403.28 1361.70 410.27 1349.70 414.64 C 1339.78 418.11 1328.74 419.40 1318.55 416.40 C 1311.81 414.27 1305.35 410.23 1301.67 404.05 C 1308.62 407.81 1316.45 410.18 1324.42 409.61 C 1341.19 408.79 1356.13 400.00 1369.63 390.73 C 1384.54 380.24 1398.23 367.96 1410.16 354.16 Z" />
<path fill="#d1d2d4" opacity="1.00" d=" M 1094.50 352.51 C 1105.06 360.93 1111.96 373.59 1113.86 386.92 C 1116.17 402.08 1111.98 417.82 1103.58 430.53 C 1092.07 447.50 1075.36 460.99 1056.10 468.14 C 1038.26 474.86 1018.62 476.05 999.92 472.82 C 987.04 470.71 974.66 466.36 962.74 461.16 C 963.26 459.74 963.79 458.32 964.34 456.91 C 973.70 459.72 982.96 463.04 992.68 464.47 C 1010.23 467.43 1028.57 466.38 1045.43 460.51 C 1060.64 455.29 1074.44 446.14 1085.36 434.34 C 1092.26 426.89 1098.35 418.47 1101.90 408.88 C 1107.41 394.82 1107.47 378.59 1101.38 364.70 C 1099.64 360.33 1096.74 356.60 1094.50 352.51 Z" />
<path fill="#d1d2d4" opacity="1.00" d=" M 746.22 387.26 C 759.81 377.38 772.51 366.25 783.93 353.93 C 784.88 354.68 785.85 355.43 786.82 356.19 C 787.06 359.72 787.62 363.24 787.61 366.79 C 786.90 368.25 785.56 369.27 784.48 370.44 C 770.72 383.92 755.62 396.19 738.95 405.90 C 725.66 413.45 710.52 419.84 694.92 417.82 C 686.05 416.93 676.96 412.83 672.29 404.91 C 681.65 409.59 692.54 410.95 702.76 408.68 C 718.76 405.28 733.03 396.62 746.22 387.26 Z" />
<path fill="#d1d2d4" opacity="1.00" d=" M 654.99 368.10 C 660.42 364.11 665.33 359.45 670.83 355.56 C 665.55 362.31 661.67 370.13 660.59 378.71 C 647.77 388.77 633.66 397.19 618.71 403.66 C 608.99 407.69 598.36 411.09 587.73 409.29 C 581.28 408.21 575.58 404.10 572.37 398.42 C 583.89 403.82 596.94 400.63 608.16 396.09 C 625.01 389.09 640.75 379.50 654.99 368.10 Z" />
<path fill="#d1d2d4" opacity="1.00" d=" M 1000.55 364.30 C 1016.39 369.93 1033.58 365.80 1049.02 360.82 C 1052.77 362.37 1055.37 365.58 1056.78 369.32 C 1047.14 372.97 1036.87 374.89 1026.60 375.45 C 1017.06 375.79 1004.85 374.20 1000.55 364.30 Z" />
<path fill="#d1d2d4" opacity="1.00" d=" M 484.83 378.80 C 487.08 376.24 489.35 373.71 491.81 371.34 C 493.70 374.97 495.89 378.42 498.06 381.89 C 488.02 393.28 477.38 404.92 463.31 411.33 C 455.45 414.89 446.50 416.76 437.93 415.09 C 431.54 413.85 425.87 409.77 422.56 404.18 C 432.37 408.87 443.88 407.69 453.62 403.45 C 465.95 398.10 475.99 388.72 484.83 378.80 Z" />
<path fill="#d1d2d4" opacity="1.00" d=" M 1150.68 403.67 C 1167.31 397.44 1181.09 385.75 1193.93 373.81 C 1196.21 377.03 1198.62 380.16 1201.26 383.10 C 1190.59 393.45 1178.79 402.88 1165.41 409.49 C 1157.90 413.07 1149.41 415.65 1141.04 414.09 C 1135.00 413.01 1129.85 408.89 1126.91 403.58 C 1134.42 407.13 1143.07 406.62 1150.68 403.67 Z" />
<path fill="#d1d2d4" opacity="1.00" d=" M 527.02 393.83 C 539.32 391.51 550.52 385.51 561.32 379.44 C 562.00 383.29 562.99 387.10 564.72 390.63 C 557.72 394.71 550.27 398.01 542.58 400.53 C 536.06 402.65 528.92 403.64 522.24 401.67 C 515.40 399.85 509.76 395.04 505.65 389.42 C 512.07 393.12 519.60 395.34 527.02 393.83 Z" />
</g>
</svg>
